<svg width="36" height="36" viewBox="0 0 36 36" fill="none" xmlns="http://www.w3.org/2000/svg">
<circle cx="18" cy="18" r="17.5" stroke="#00C74F"/>
<path d="M20.2223 17.6878L16.6622 14.1278C16.5799 14.0454 16.47 14 16.3528 14C16.2356 14 16.1257 14.0454 16.0433 14.1278L15.7811 14.3899C15.6105 14.5607 15.6105 14.8383 15.7811 15.0088L18.7707 17.9983L15.7778 20.9912C15.6955 21.0736 15.65 21.1834 15.65 21.3006C15.65 21.4178 15.6955 21.5277 15.7778 21.6101L16.04 21.8722C16.1224 21.9546 16.2323 22 16.3495 22C16.4667 22 16.5766 21.9546 16.6589 21.8722L20.2223 18.3089C20.3049 18.2262 20.3502 18.1159 20.35 17.9985C20.3502 17.8807 20.3049 17.7704 20.2223 17.6878Z" fill="#00C74F"/>
</svg>
