<svg width="60" height="60" viewBox="0 0 60 60" fill="none" xmlns="http://www.w3.org/2000/svg">
<g clip-path="url(#clip0)">
<path d="M57.6567 28.1163H51.9543C51.3494 28.1163 50.7692 27.8774 50.3414 27.452C49.9137 27.0266 49.6733 26.4497 49.6733 25.8481V21.3116C49.6733 20.71 49.9137 20.1331 50.3414 19.7077C50.7692 19.2823 51.3494 19.0433 51.9543 19.0433H57.6567C58.2617 19.0433 58.8418 19.2823 59.2696 19.7077C59.6974 20.1331 59.9377 20.71 59.9377 21.3116V25.8481C59.9377 26.4497 59.6974 27.0266 59.2696 27.452C58.8418 27.8774 58.2617 28.1163 57.6567 28.1163ZM51.9543 21.3116V25.8481H57.6567V21.3116H51.9543Z" fill="#4B506B"/>
<path d="M41.1198 28.1163H35.4174C34.8125 28.1163 34.2323 27.8774 33.8046 27.452C33.3768 27.0266 33.1365 26.4497 33.1365 25.8481V21.3116C33.1365 20.71 33.3768 20.1331 33.8046 19.7077C34.2323 19.2823 34.8125 19.0433 35.4174 19.0433H41.1198C41.7248 19.0433 42.305 19.2823 42.7327 19.7077C43.1605 20.1331 43.4008 20.71 43.4008 21.3116V25.8481C43.4008 26.4497 43.1605 27.0266 42.7327 27.452C42.305 27.8774 41.7248 28.1163 41.1198 28.1163ZM35.4174 21.3116V25.8481H41.1198V21.3116H35.4174Z" fill="#4B506B"/>
<path d="M24.5827 28.1163H18.8803C18.2754 28.1163 17.6952 27.8774 17.2674 27.452C16.8397 27.0266 16.5994 26.4497 16.5994 25.8481V21.3116C16.5994 20.71 16.8397 20.1331 17.2674 19.7077C17.6952 19.2823 18.2754 19.0433 18.8803 19.0433H24.5827C25.1877 19.0433 25.7679 19.2823 26.1956 19.7077C26.6234 20.1331 26.8637 20.71 26.8637 21.3116V25.8481C26.8637 26.4497 26.6234 27.0266 26.1956 27.452C25.7679 27.8774 25.1877 28.1163 24.5827 28.1163ZM18.8803 21.3116V25.8481H24.5827V21.3116H18.8803Z" fill="#4B506B"/>
<path d="M41.1198 41.7258H35.4174C34.8125 41.7258 34.2323 41.4869 33.8046 41.0615C33.3768 40.6361 33.1365 40.0592 33.1365 39.4576V34.9211C33.1365 34.3195 33.3768 33.7426 33.8046 33.3172C34.2323 32.8918 34.8125 32.6528 35.4174 32.6528H41.1198C41.7248 32.6528 42.305 32.8918 42.7327 33.3172C43.1605 33.7426 43.4008 34.3195 43.4008 34.9211V39.4576C43.4008 40.0592 43.1605 40.6361 42.7327 41.0615C42.305 41.4869 41.7248 41.7258 41.1198 41.7258ZM35.4174 34.9211V39.4576H41.1198V34.9211H35.4174Z" fill="#4B506B"/>
<path d="M24.5827 41.7258H18.8803C18.2754 41.7258 17.6952 41.4869 17.2674 41.0615C16.8397 40.6361 16.5994 40.0592 16.5994 39.4576V34.9211C16.5994 34.3195 16.8397 33.7426 17.2674 33.3172C17.6952 32.8918 18.2754 32.6528 18.8803 32.6528H24.5827C25.1877 32.6528 25.7679 32.8918 26.1956 33.3172C26.6234 33.7426 26.8637 34.3195 26.8637 34.9211V39.4576C26.8637 40.0592 26.6234 40.6361 26.1956 41.0615C25.7679 41.4869 25.1877 41.7258 24.5827 41.7258ZM18.8803 34.9211V39.4576H24.5827V34.9211H18.8803Z" fill="#4B506B"/>
<path d="M8.04587 41.7258H2.34346C1.73851 41.7258 1.15834 41.4869 0.730579 41.0615C0.302815 40.6361 0.0625 40.0592 0.0625 39.4576V34.9211C0.0625 34.3195 0.302815 33.7426 0.730579 33.3172C1.15834 32.8918 1.73851 32.6528 2.34346 32.6528H8.04587C8.65082 32.6528 9.23099 32.8918 9.65875 33.3172C10.0865 33.7426 10.3268 34.3195 10.3268 34.9211V39.4576C10.3268 40.0592 10.0865 40.6361 9.65875 41.0615C9.23099 41.4869 8.65082 41.7258 8.04587 41.7258ZM2.34346 34.9211V39.4576H8.04587V34.9211H2.34346Z" fill="#4B506B"/>
</g>
<defs>
<clipPath id="clip0">
<rect width="60" height="22.9412" fill="white" transform="translate(0 19)"/>
</clipPath>
</defs>
</svg>
