<svg width="60" height="60" viewBox="0 0 60 60" fill="none" xmlns="http://www.w3.org/2000/svg">
<path d="M57.1697 3.39623H51.5093V0H49.2452V3.39623H44.7169V0H42.4527V3.39623H37.9244V0H35.6603V3.39623H31.132V0H28.8678V3.39623H24.3395V0H22.0754V3.39623H17.5471V0H15.2829V3.39623H10.7546V0H8.49045V3.39623H2.83007C2.20488 3.39623 1.698 3.90311 1.698 4.5283V58.8679C1.698 59.4931 2.20488 60 2.83007 60H57.1697C57.7949 60 58.3018 59.4931 58.3018 58.8679V4.5283C58.3018 3.90311 57.7949 3.39623 57.1697 3.39623ZM56.0376 57.7358H3.96215V15.8491H56.0376V57.7358ZM56.0376 13.5849H3.96215V5.66038H8.49045V9.0566H10.7546V5.66038H15.2829V9.0566H17.5471V5.66038H22.0754V9.0566H24.3395V5.66038H28.8678V9.0566H31.132V5.66038H35.6603V9.0566H37.9244V5.66038H42.4527V9.0566H44.7169V5.66038H49.2452V9.0566H51.5093V5.66038H56.0376V13.5849Z" fill="#4B506B"/>
</svg>
