<svg width="71" height="71" viewBox="0 0 71 71" fill="none" xmlns="http://www.w3.org/2000/svg">
<path d="M65.6951 55.0842L54.1304 50.0752C53.8582 49.9391 53.5565 49.6066 53.2973 49.1628L61.0186 49.1569C61.1535 49.1699 64.3366 49.461 66.8891 48.3641C67.8559 47.9475 68.5753 47.1251 68.8641 46.1074C69.1552 45.0803 68.9706 43.9928 68.36 43.1219C66.1531 39.9813 61.002 31.7749 60.8411 23.4513C60.8375 23.3082 60.3713 9.15312 46.3926 9.03834C44.3348 9.05491 42.432 9.40399 40.7007 10.0477C40.3233 9.08567 39.7671 8.08221 38.9399 7.13791C36.5106 4.36417 32.5665 2.95837 27.2167 2.95837C21.8668 2.95837 17.9228 4.36417 15.4922 7.13554C12.6901 10.3317 12.9504 14.2071 13.0167 14.8568V21.1509C12.2593 22.0136 11.8333 23.1176 11.8333 24.2572V28.9905C11.8333 30.4306 12.4877 31.7737 13.6048 32.6695C14.6887 36.9615 16.9572 40.1955 17.75 41.2333V45.1489C17.75 46.2944 17.1252 47.3452 16.1205 47.8943L5.56403 53.6524C2.13118 55.5268 0 59.117 0 63.0267V68.0417H52.0667H54.4333H71V63.6669C71 60.0081 68.967 56.7208 65.6951 55.0842ZM52.0667 65.675H2.36667V63.0267C2.36667 59.9844 4.0257 57.1882 6.69648 55.7327L17.253 49.9746C19.0197 49.0102 20.1167 47.1606 20.1167 45.1501V40.3943L19.8409 40.0653C19.8125 40.031 16.9122 36.5224 15.8058 31.7051L15.6981 31.2365L15.2946 30.9762C14.6094 30.5336 14.2 29.7916 14.2 28.9917V24.2584C14.2 23.5945 14.4816 22.9756 14.9928 22.513L15.3833 22.1615V14.7917L15.3727 14.6367C15.3691 14.6047 14.9668 11.3245 17.2719 8.69517C19.2327 6.45867 22.5792 5.32504 27.2167 5.32504C31.8376 5.32504 35.1769 6.45039 37.1401 8.67151C38.1163 9.77437 38.6074 11.0062 38.8524 12.0641C38.8713 12.147 38.8891 12.2286 38.9056 12.3103C38.9222 12.3943 38.9399 12.4783 38.953 12.5588C38.9683 12.6511 38.9814 12.7386 38.9944 12.8262C39.0038 12.8889 39.0133 12.9528 39.0204 13.0132C39.0382 13.1599 39.0524 13.3019 39.0618 13.4332C39.063 13.4439 39.063 13.4534 39.063 13.464C39.0713 13.5918 39.0772 13.7125 39.0808 13.8226C39.0808 13.8439 39.0808 13.8616 39.0819 13.8829C39.0843 13.9811 39.0843 14.0746 39.0831 14.1563C39.0831 14.1681 39.0831 14.1799 39.0831 14.1918C39.0784 14.4698 39.0595 14.6355 39.0595 14.6391L39.05 22.1615L39.4405 22.5141C39.9517 22.9756 40.2333 23.5945 40.2333 24.2584V28.9917C40.2333 30.0248 39.5565 30.9288 38.5506 31.2389L37.9613 31.4199L37.772 32.0057C36.9803 34.4682 35.8526 36.7425 34.4184 38.766C34.067 39.2642 33.725 39.7056 33.428 40.0429L33.1333 40.3789V45.2602C33.1333 45.5596 33.1629 45.853 33.2091 46.1418C33.2185 46.2033 33.2351 46.2625 33.2469 46.324C33.2931 46.5618 33.3546 46.795 33.4303 47.0222C33.4481 47.0754 33.467 47.1263 33.4871 47.1795C33.5794 47.4269 33.6871 47.6659 33.8126 47.8955C33.8268 47.9215 33.8398 47.9487 33.854 47.9747C34.0256 48.2777 34.2232 48.5652 34.4504 48.8303L34.7202 49.1628H34.7663C35.1722 49.5628 35.6384 49.9107 36.1686 50.1757L47.473 55.8273C50.307 57.2426 52.0667 60.0897 52.0667 63.2575V65.675ZM68.6333 65.675H54.4333V63.2575C54.4333 59.188 52.172 55.5303 48.5332 53.7104L40.4179 49.6515C40.6179 49.1948 40.6439 48.6717 40.4688 48.1676C40.1789 47.3334 39.4216 46.795 38.54 46.795H35.9165C35.8621 46.6991 35.8266 46.5938 35.7828 46.492C35.7236 46.3559 35.6538 46.2222 35.6148 46.079C35.5426 45.8163 35.5 45.5418 35.5 45.2602V41.2593C35.771 40.928 36.0562 40.5505 36.3508 40.134C37.817 38.0631 38.992 35.758 39.8464 33.2718C41.5161 32.5062 42.6 30.8555 42.6 28.9917V24.2584C42.6 23.1188 42.174 22.0148 41.4167 21.1521V14.858C41.4474 14.5621 41.5137 13.593 41.3173 12.3268C42.8414 11.7281 44.5489 11.4192 46.3938 11.4038C58.0389 11.4997 58.4638 23.0135 58.4756 23.4987C58.6495 32.4719 64.0917 41.1623 66.424 44.4815C66.624 44.7655 66.6844 45.1229 66.5885 45.4602C66.5341 45.6542 66.3779 46.0069 65.9554 46.1879C63.9674 47.0435 61.2706 46.8009 61.1322 46.795H52.9873C52.2264 46.795 51.533 47.1819 51.1318 47.8292C50.7319 48.4741 50.694 49.2622 51.0301 49.9391C51.4004 50.6858 52.0548 51.6833 53.1305 52.2194L64.6644 57.2154C67.1127 58.452 68.6333 60.9204 68.6333 63.6669V65.675Z" fill="#4B506B"/>
</svg>
