<svg width="67" height="67" viewBox="0 0 67 67" fill="none" xmlns="http://www.w3.org/2000/svg">
<path d="M34.5815 58.638V52.1095H33.5132H32.4449V58.638C30.6116 59.1128 29.2532 60.7614 29.2532 62.7398C29.2532 65.0874 31.1656 66.9998 33.5132 66.9998C35.8609 66.9998 37.7733 65.0874 37.7733 62.7398C37.7733 60.7614 36.4148 59.1128 34.5815 58.638ZM33.5132 64.8632C32.3394 64.8632 31.3898 63.9136 31.3898 62.7398C31.3898 61.566 32.3394 60.6164 33.5132 60.6164C34.687 60.6164 35.6366 61.5792 35.6366 62.7398C35.6366 63.9136 34.687 64.8632 33.5132 64.8632Z" fill="#4B506B"/>
<path d="M62.7522 29.24C60.7738 29.24 59.1252 30.5984 58.6504 32.4317H52.623C52.4911 27.8815 50.7898 23.727 48.0069 20.4957L52.0427 16.4598C52.689 16.8423 53.4276 17.0665 54.1925 17.0665C55.3268 17.0665 56.3951 16.6181 57.1996 15.8268C58.0041 15.0222 58.4394 13.9539 58.4394 12.8197C58.4394 11.6854 57.9909 10.6171 57.1996 9.8126C55.5906 8.20354 52.7945 8.20354 51.1854 9.8126C50.3809 10.6171 49.9457 11.6854 49.9457 12.8197C49.9457 13.5846 50.1699 14.3232 50.5524 14.9695L46.5429 18.9789C43.3644 16.0246 39.1967 14.1386 34.5805 13.888V8.36181C36.4138 7.88701 37.7722 6.23839 37.7722 4.26004C37.7722 1.9124 35.8598 0 33.5122 0C31.1646 0 29.2522 1.9124 29.2522 4.26004C29.2522 6.23839 30.6106 7.88701 32.4439 8.36181V13.888C27.8409 14.1386 23.66 16.0246 20.4815 18.9789L16.472 14.9695C16.8545 14.3232 17.0787 13.5846 17.0787 12.8197C17.0787 11.6854 16.6303 10.6171 15.839 9.8126C14.2299 8.20354 11.4339 8.20354 9.82481 9.8126C9.02028 10.6171 8.58504 11.6854 8.58504 12.8197C8.58504 13.9539 9.03347 15.0222 9.82481 15.8268C10.6293 16.6313 11.6976 17.0665 12.8319 17.0665C13.5969 17.0665 14.3354 16.8423 14.9817 16.4598L19.0175 20.4957C16.2346 23.727 14.5201 27.8815 14.4014 32.4317H8.37402C7.89921 30.5984 6.25059 29.24 4.27225 29.24C1.92461 29.24 0.012207 31.1524 0.012207 33.5C0.012207 35.8476 1.92461 37.76 4.27225 37.76C6.25059 37.76 7.89921 36.4016 8.37402 34.5683H14.4541C14.8234 38.9734 16.6831 42.9433 19.5187 45.99L14.9817 50.527C14.3354 50.1445 13.5969 49.9203 12.8319 49.9203C11.6976 49.9203 10.6293 50.3687 9.82481 51.16C9.02028 51.9646 8.58504 53.0329 8.58504 54.1671C8.58504 55.3014 9.03347 56.3697 9.82481 57.1742C10.6293 57.9787 11.6976 58.414 12.8319 58.414C13.9661 58.414 15.0345 57.9655 15.839 57.1742C16.6435 56.3697 17.0787 55.3014 17.0787 54.1671C17.0787 53.4022 16.8545 52.6636 16.472 52.0173L21.0354 47.4539C24.3854 50.3423 28.7378 52.0965 33.499 52.0965C38.2602 52.0965 42.6126 50.3423 45.9626 47.4539L50.526 52.0173C50.1435 52.6636 49.9193 53.4022 49.9193 54.1671C49.9193 55.3014 50.3677 56.3697 51.1591 57.1742C51.9636 57.9787 53.0319 58.414 54.1661 58.414C55.3004 58.414 56.3687 57.9655 57.1732 57.1742C57.9778 56.3697 58.413 55.3014 58.413 54.1671C58.413 53.0329 57.9646 51.9646 57.1732 51.16C56.3687 50.3555 55.3004 49.9203 54.1661 49.9203C53.4012 49.9203 52.6626 50.1445 52.0163 50.527L47.4793 45.99C50.3281 42.9301 52.1878 38.9602 52.5439 34.5683H58.624C59.0988 36.4016 60.7474 37.76 62.7258 37.76C65.0734 37.76 66.9858 35.8476 66.9858 33.5C66.9858 31.1524 65.0998 29.24 62.7522 29.24ZM52.689 11.3161C53.0846 10.9205 53.6254 10.6963 54.1925 10.6963C54.7596 10.6963 55.3004 10.9205 55.6961 11.3161C56.0917 11.7118 56.3159 12.2526 56.3159 12.8197C56.3159 13.3868 56.0917 13.9276 55.6961 14.3232C54.8915 15.1278 53.4935 15.1278 52.689 14.3232C52.2933 13.9276 52.0691 13.3868 52.0691 12.8197C52.0691 12.2526 52.2801 11.7118 52.689 11.3161ZM14.3354 14.3232C13.5309 15.1278 12.1329 15.1278 11.3283 14.3232C10.9327 13.9276 10.7085 13.3868 10.7085 12.8197C10.7085 12.2526 10.9327 11.7118 11.3283 11.3161C11.724 10.9205 12.2648 10.6963 12.8319 10.6963C13.399 10.6963 13.9398 10.9205 14.3354 11.3161C14.7311 11.7118 14.9553 12.2526 14.9553 12.8197C14.9553 13.3868 14.7311 13.9276 14.3354 14.3232ZM4.27225 35.6234C3.09843 35.6234 2.14882 34.6738 2.14882 33.5C2.14882 32.3262 3.09843 31.3766 4.27225 31.3766C5.44607 31.3766 6.39567 32.3262 6.39567 33.5C6.39567 34.6738 5.43288 35.6234 4.27225 35.6234ZM14.3354 55.6839C13.5309 56.4884 12.1329 56.4884 11.3283 55.6839C10.9327 55.2882 10.7085 54.7474 10.7085 54.1803C10.7085 53.6132 10.9327 53.0724 11.3283 52.6768C11.724 52.2811 12.2648 52.0569 12.8319 52.0569C13.399 52.0569 13.9398 52.2811 14.3354 52.6768C14.7311 53.0724 14.9553 53.6132 14.9553 54.1803C14.9553 54.7474 14.7443 55.2882 14.3354 55.6839ZM52.689 52.6768C53.0846 52.2811 53.6254 52.0569 54.1925 52.0569C54.7596 52.0569 55.3004 52.2679 55.6961 52.6768C56.0917 53.0724 56.3159 53.6132 56.3159 54.1803C56.3159 54.7474 56.0917 55.2882 55.6961 55.6839C54.8915 56.4884 53.4935 56.4884 52.689 55.6839C52.2933 55.2882 52.0691 54.7474 52.0691 54.1803C52.0691 53.6132 52.2933 53.0724 52.689 52.6768ZM31.3888 4.26004C31.3888 3.08622 32.3384 2.13661 33.5122 2.13661C34.686 2.13661 35.6356 3.08622 35.6356 4.26004C35.6356 5.43386 34.686 6.38346 33.5122 6.38346C32.3384 6.38346 31.3888 5.42067 31.3888 4.26004ZM33.5122 49.9862C24.1348 49.9862 16.4984 42.3498 16.4984 32.9724C16.4984 23.5951 24.1348 15.9587 33.5122 15.9587C42.8896 15.9587 50.526 23.5951 50.526 32.9724C50.526 42.3498 42.8896 49.9862 33.5122 49.9862ZM62.7522 35.6234C61.5783 35.6234 60.6287 34.6738 60.6287 33.5C60.6287 32.3262 61.5783 31.3766 62.7522 31.3766C63.926 31.3766 64.8756 32.3262 64.8756 33.5C64.8756 34.6738 63.926 35.6234 62.7522 35.6234Z" fill="#4B506B"/>
</svg>
