<svg width="56" height="56" viewBox="0 0 56 56" fill="none" xmlns="http://www.w3.org/2000/svg">
<g clip-path="url(#clip0)">
<path d="M7 35C3.14067 35 0 31.8593 0 28C0 24.1407 3.14067 21 7 21C10.8593 21 14 24.1407 14 28C14 31.8593 10.8593 35 7 35ZM7 23.3333C4.42633 23.3333 2.33333 25.4263 2.33333 28C2.33333 30.5737 4.42633 32.6667 7 32.6667C9.57367 32.6667 11.6667 30.5737 11.6667 28C11.6667 25.4263 9.57367 23.3333 7 23.3333Z" fill="#4B506B"/>
<path d="M28 35C24.1407 35 21 31.8593 21 28C21 24.1407 24.1407 21 28 21C31.8593 21 35 24.1407 35 28C35 31.8593 31.8593 35 28 35ZM28 23.3333C25.4263 23.3333 23.3333 25.4263 23.3333 28C23.3333 30.5737 25.4263 32.6667 28 32.6667C30.5737 32.6667 32.6667 30.5737 32.6667 28C32.6667 25.4263 30.5737 23.3333 28 23.3333Z" fill="#4B506B"/>
<path d="M49 35C45.1407 35 42 31.8593 42 28C42 24.1407 45.1407 21 49 21C52.8593 21 56 24.1407 56 28C56 31.8593 52.8593 35 49 35ZM49 23.3333C46.4263 23.3333 44.3333 25.4263 44.3333 28C44.3333 30.5737 46.4263 32.6667 49 32.6667C51.5737 32.6667 53.6667 30.5737 53.6667 28C53.6667 25.4263 51.5737 23.3333 49 23.3333Z" fill="#4B506B"/>
</g>
<defs>
<clipPath id="clip0">
<rect width="56" height="56" fill="white"/>
</clipPath>
</defs>
</svg>
