<svg width="80" height="80" viewBox="0 0 80 80" fill="none" xmlns="http://www.w3.org/2000/svg">
<path d="M74.375 12.5H18.125C15.7098 12.5027 13.7527 14.4598 13.75 16.875V25H5.625C3.20984 25.0027 1.25266 26.9598 1.25 29.375V63.125C1.25266 65.5402 3.20984 67.4973 5.625 67.5H24.375C26.7902 67.4973 28.7473 65.5402 28.75 63.125V60H38.525L37.6906 65H33.75C33.0597 65 32.5 65.5597 32.5 66.25C32.5 66.9403 33.0597 67.5 33.75 67.5H58.75C59.4403 67.5 60 66.9403 60 66.25C60 65.5597 59.4403 65 58.75 65H54.8094L53.975 60H74.375C76.7902 59.9973 78.7473 58.0402 78.75 55.625V16.875C78.7473 14.4598 76.7902 12.5027 74.375 12.5ZM18.2656 27.5L17.8484 28.75H12.1516L11.7344 27.5H18.2656ZM26.25 63.125C26.2491 64.1602 25.4102 64.9991 24.375 65H5.625C4.58984 64.9991 3.75094 64.1602 3.75 63.125V29.375C3.75094 28.3398 4.58984 27.5009 5.625 27.5H9.09844L10.0641 30.3953C10.2342 30.9058 10.7119 31.25 11.25 31.25H18.75C19.2881 31.25 19.7658 30.9058 19.9359 30.3953L20.9016 27.5H24.375C25.4102 27.5009 26.2491 28.3398 26.25 29.375V63.125ZM40.225 65L41.0594 60H51.4406L52.275 65H40.225ZM76.25 55.625C76.2491 56.6602 75.4102 57.4991 74.375 57.5H28.75V55H76.25V55.625ZM76.25 52.5H28.75V29.375C28.7473 26.9598 26.7902 25.0027 24.375 25H16.25V16.875C16.2509 15.8398 17.0898 15.0009 18.125 15H74.375C75.4102 15.0009 76.2491 15.8398 76.25 16.875V52.5Z" fill="#4B506B"/>
</svg>
