<svg width="60" height="60" viewBox="0 0 60 60" fill="none" xmlns="http://www.w3.org/2000/svg">
<g clip-path="url(#clip0)">
<path d="M57.4999 27.4999H32.5V2.50005C32.5 1.11929 31.3807 0 30 0C28.6192 0 27.4999 1.11929 27.4999 2.50005V27.5001H2.50005C1.11929 27.4999 0 28.6192 0 30C0 31.3807 1.11929 32.5 2.50005 32.5H27.5001V57.5001C27.5001 58.8808 28.6194 60.0001 30.0001 60.0001C31.3809 60.0001 32.5002 58.8808 32.5002 57.5001V32.5H57.5002C58.881 32.5 60.0003 31.3807 60.0003 30C60.0003 28.6192 58.8807 27.4999 57.4999 27.4999Z" fill="#4B506B"/>
</g>
<defs>
<clipPath id="clip0">
<rect width="60" height="60" fill="white"/>
</clipPath>
</defs>
</svg>
