<svg width="60" height="60" viewBox="0 0 60 60" fill="none" xmlns="http://www.w3.org/2000/svg">
<path d="M53.75 2.5H6.24996C2.805 2.5 0 5.305 0 8.75008V51.2501C0 54.6951 2.805 57.5001 6.24996 57.5001H53.7499C57.1949 57.5001 59.9999 54.6951 59.9999 51.2501V8.75008C60 5.305 57.195 2.5 53.75 2.5ZM57.5 51.25C57.5 53.3175 55.8176 55 53.75 55H6.24996C4.18242 55 2.49996 53.3175 2.49996 51.25V15H57.4999V51.25H57.5ZM57.5 12.5001H2.49996V8.75008C2.49996 6.68254 4.18242 5.00008 6.24996 5.00008H53.7499C55.8175 5.00008 57.4999 6.68254 57.4999 8.75008V12.5001H57.5Z" fill="#4B506B"/>
<path d="M6.24992 10.0001C6.94029 10.0001 7.49996 9.44042 7.49996 8.75004C7.49996 8.05966 6.94029 7.5 6.24992 7.5C5.55954 7.5 4.99988 8.05966 4.99988 8.75004C4.99988 9.44042 5.55954 10.0001 6.24992 10.0001Z" fill="#4B506B"/>
<path d="M11.25 10.0001C11.9404 10.0001 12.5 9.44042 12.5 8.75004C12.5 8.05966 11.9404 7.5 11.25 7.5C10.5596 7.5 9.99994 8.05966 9.99994 8.75004C9.99994 9.44042 10.5596 10.0001 11.25 10.0001Z" fill="#4B506B"/>
<path d="M16.25 10.0001C16.9404 10.0001 17.5001 9.44042 17.5001 8.75004C17.5001 8.05966 16.9404 7.5 16.25 7.5C15.5597 7.5 15 8.05966 15 8.75004C15 9.44042 15.5597 10.0001 16.25 10.0001Z" fill="#4B506B"/>
</svg>
