<svg width="60" height="60" viewBox="0 0 60 60" fill="none" xmlns="http://www.w3.org/2000/svg">
<path d="M43.2676 18.7282C32.5579 12.2125 37.5801 3.01594 37.7956 2.63367C38.1083 2.08969 38.1073 1.42043 37.793 0.877383C37.4788 0.334336 36.899 0 36.2716 0C30.7587 0 26.4418 1.56633 23.4407 4.65562C18.3127 9.93434 18.5506 18.15 18.6521 21.6584C18.6633 22.047 18.6731 22.3828 18.6731 22.6322C18.6731 25.237 19.091 27.6418 19.4597 29.7635C19.6974 31.1307 19.9026 32.3115 19.939 33.2399C19.9781 34.2336 19.7967 34.4614 19.7889 34.4706C19.763 34.5013 19.5474 34.616 18.9644 34.616C18.2995 34.616 17.8093 34.3988 17.375 33.9118C15.6786 32.0097 15.5613 26.8157 15.8856 23.9899C15.9437 23.4916 15.786 22.9924 15.4524 22.6179C15.1189 22.2434 14.6412 22.0291 14.1397 22.0291C9.5758 22.0291 6.16553 29.4926 6.16553 36.1657C6.16553 39.3027 6.79646 42.3757 8.04088 45.2993C9.24393 48.1256 10.9594 50.6766 13.1399 52.8809C17.6812 57.4717 23.6687 60 29.9996 60C36.356 60 42.3419 57.5074 46.8548 52.9816C51.356 48.4676 53.8348 42.4953 53.8348 36.1655C53.8347 28.0887 47.5153 21.3123 43.2676 18.7282ZM29.9996 56.4844C18.986 56.4844 9.68127 47.1796 9.68127 36.1655C9.68127 33.4869 10.3204 30.6752 11.4347 28.4516C11.695 27.9321 11.9621 27.4864 12.2256 27.111C12.2551 30.011 12.7144 33.9643 14.7482 36.2483C15.8453 37.4803 17.3033 38.1315 18.9645 38.1315C20.5164 38.1315 21.6991 37.6611 22.4793 36.7335C23.9381 34.9993 23.4903 32.4231 22.9236 29.1614C22.5792 27.1798 22.1888 24.9336 22.1888 22.6321C22.1888 22.3317 22.1784 21.9725 22.1664 21.5564C22.0702 18.2332 21.8699 11.3181 25.9625 7.10531C27.7996 5.21402 30.3646 4.06301 33.6095 3.66914C33.2432 4.88555 32.9274 6.42973 32.9152 8.15871C32.8883 11.9682 34.3454 17.4152 41.4404 21.7317C44.8731 23.8201 50.3192 29.5854 50.3192 36.1656C50.3191 47.3694 41.2038 56.4844 29.9996 56.4844Z" fill="#4B506B"/>
</svg>
