<svg width="412" height="398" viewBox="0 0 412 398" fill="none" xmlns="http://www.w3.org/2000/svg">
<path d="M88.5864 191.358C91.7841 192.626 92.6188 196.729 94.9111 199.295C95.8209 200.315 96.9737 201.084 98.1088 201.844C107.746 208.296 118.386 215.023 129.94 214.034C133.023 213.769 136.719 212.174 136.786 209.078C136.834 206.879 134.944 205.152 133.089 203.964C122.259 197.034 107.22 197.158 98.5283 187.684C95.9093 184.831 93.6568 181.001 89.8363 180.374C89.4168 183.651 88.9883 186.924 88.5864 191.358Z" fill="#DFE2F2"/>
<path d="M64.0695 222.134C69.3518 223.229 74.2189 225.906 78.3971 229.32C82.5708 232.738 86.0953 236.881 89.3283 241.201C85.2738 232.014 78.2204 224.179 69.5064 219.188C68.9189 218.852 68.2653 218.517 67.5984 218.631C66.1497 218.879 65.6374 221.003 64.0695 222.134Z" fill="#DFE2F2"/>
<path d="M47.613 237.786C55.5675 237.756 63.5263 238.93 71.1318 241.258C73.4152 241.96 75.7384 242.773 78.1234 242.658C75.416 239.505 71.2996 238.012 67.3732 236.647C62.7975 235.053 58.138 233.445 53.2973 233.273C52.6525 233.251 51.99 233.255 51.3805 233.476C50.0113 233.97 49.2472 235.401 47.613 237.786Z" fill="#DFE2F2"/>
<path d="M41.306 246.13C46.5707 245.352 51.9237 245.207 57.2237 245.697C57.5019 245.29 56.9852 244.809 56.5391 244.601C54.1364 243.462 51.5792 242.654 48.9601 242.203C47.8427 242.013 46.6944 241.885 45.5814 242.106C44.4684 242.331 43.3907 242.945 41.306 246.13Z" fill="#DFE2F2"/>
<path d="M36.6949 254.835C43.6468 253.528 50.7709 253.13 57.8243 253.656C58.6149 252.799 57.7845 251.306 56.6671 250.966C55.5541 250.626 54.366 250.997 53.2133 251.174C48.7524 251.858 44.0443 249.601 36.6949 254.835Z" fill="#DFE2F2"/>
<path d="M58.4073 268.562C55.5188 267.506 52.3344 267.846 49.2781 268.2C44.5743 268.743 39.8352 269.295 35.3258 270.73C34.9946 270.836 34.6368 270.965 34.4469 271.256C34.2437 271.565 34.2835 271.967 34.2835 272.338C34.2791 273.46 33.8109 274.524 33.3516 275.549C32.4903 277.47 31.6291 279.392 30.7678 281.308C35.0255 278.367 39.3185 275.408 44.0973 273.42C48.6509 271.525 53.5976 270.554 58.4073 268.562Z" fill="#DFE2F2"/>
<path d="M2.8545 333.549C5.97708 339.763 13.3353 342.81 20.2827 343.159C27.2301 343.508 34.0803 341.711 40.9703 340.779C47.03 339.957 53.1824 339.807 59.2774 340.333C60.2667 340.416 61.2914 340.531 62.1482 341.035C63.0051 341.538 63.6455 342.545 63.4158 343.513C54.1806 346.781 44.7731 349.563 35.2507 351.851C32.2562 352.571 29.2132 353.242 26.1348 353.194C20.9275 353.11 15.9941 350.968 11.3301 348.654C9.03342 347.514 6.73233 346.299 4.88175 344.524C3.03117 342.748 1.66642 340.319 2.8545 333.549Z" fill="#DFE2F2"/>
<path d="M50.3911 357.019C53.4254 355.637 56.9322 356.078 60.2579 356.348C73.1944 357.394 86.1617 355.341 99.129 354.797C121.654 353.857 144.294 357.483 166.708 355.071C138.049 366.661 105.577 361.409 75.0626 366.36C70.2087 367.146 65.2974 368.198 60.4169 367.61C55.5277 367.018 50.5501 364.399 50.3911 357.019Z" fill="#DFE2F2"/>
<path d="M229.854 340.593C238.78 344.67 249.322 343.627 258.562 340.315C264.683 338.12 270.606 334.856 274.709 329.812C277.62 326.23 279.475 321.924 281.299 317.684C284.876 322.458 288.03 328.461 286.29 334.167C285.344 337.263 283.061 339.785 280.544 341.821C273.106 347.845 262.992 350.429 253.575 348.715C247.745 347.66 242.079 345.041 229.854 340.593Z" fill="#DFE2F2"/>
<path d="M232.689 266.194C242.45 267.89 251.862 271.574 260.183 276.953C258.677 274.286 257.171 271.618 255.664 268.95C255.307 268.319 254.94 267.678 254.397 267.201C253.929 266.791 253.35 266.526 252.78 266.27C249.6 264.83 246.35 263.368 242.878 263.032C240.188 262.767 237.481 263.196 232.689 266.194Z" fill="#DFE2F2"/>
<path d="M233.36 256.632C240.776 256.822 248.134 258.929 254.525 262.692C254.017 260.378 253.509 258.068 253.006 255.754C249.91 256.2 246.769 256.363 243.642 256.248" fill="#DFE2F2"/>
<path d="M233.365 251.001C239.133 250.489 244.777 252.812 250.563 253.081C250.426 251.394 249.923 249.733 249.101 248.254C248.969 248.015 248.819 247.768 248.576 247.644C248.293 247.499 247.953 247.543 247.639 247.596C242.816 248.4 238.069 249.641 233.365 251.001Z" fill="#DFE2F2"/>
<path d="M232.826 244.018C237.437 243.564 242.123 243.873 246.637 244.924C245.692 243.294 244.627 241.735 243.457 240.26C240.745 240.772 238.033 241.289 232.826 244.018Z" fill="#DFE2F2"/>
<path d="M211.723 241.059C214.439 237.8 218.229 235.561 222.222 234.121C226.214 232.681 230.437 231.992 234.641 231.409C235.525 231.285 236.443 231.17 237.291 231.44C239.394 232.102 240.118 234.651 240.52 236.815C231.987 235.547 222.875 235.883 211.723 241.059Z" fill="#DFE2F2"/>
<path d="M202.554 241.36C202.678 236.289 204.811 231.427 207.788 227.328C210.769 223.225 214.567 219.798 218.428 216.507C218.794 216.194 219.187 215.871 219.664 215.814C220.296 215.739 220.874 216.141 221.365 216.542C223.087 217.947 224.637 219.563 225.962 221.348C216.736 223.538 208.706 230.3 202.554 241.36Z" fill="#DFE2F2"/>
<path d="M199.776 241.399C197.925 230.327 201.538 218.477 209.245 210.319C209.705 209.833 210.221 209.334 210.875 209.211C211.436 209.105 212.01 209.286 212.531 209.507C214.143 210.191 215.579 211.304 216.643 212.695C208.071 217.518 201.892 226.392 199.776 241.399Z" fill="#DFE2F2"/>
<path d="M150.437 226.1C169.168 223.561 187.259 216.459 202.717 205.58C203.548 206.26 204.383 206.936 205.213 207.616C200.929 215.46 193.712 221.657 185.307 224.696C176.187 227.999 166.2 227.597 150.437 226.1Z" fill="#DFE2F2"/>
<path d="M229.986 0.894165C130.465 0.894165 49.786 80.9772 49.786 179.769C49.786 196.398 52.0738 212.497 56.3536 227.774C57.9657 226.467 59.7765 225.429 61.9186 224.841C63.3717 223.494 64.8159 222.134 66.4192 221.078C66.7902 219.789 67.2318 218.552 68.0268 217.399C71.3084 212.638 76.9043 210.324 81.9791 207.952C83.1848 207.387 84.4215 206.91 85.5433 206.181C85.9453 205.92 86.3251 205.633 86.7226 205.368C86.9169 205.2 87.1113 205.028 87.2879 204.843C87.4823 204.644 87.6678 204.436 87.8533 204.229C88.0343 203.911 88.7322 202.418 88.5643 203.027C88.9309 201.91 89.2224 200.748 89.4874 199.609C89.6773 198.796 89.1562 198.862 89.3063 198.045C89.3152 198.001 89.9865 197.083 89.9953 197.043C90.013 196.606 88.5864 195.947 88.5908 195.515C88.6173 194.07 88.3921 194.45 88.5908 193.05C87.3144 190.74 88.9 186.187 90.4238 184.098C90.5916 183.868 90.7594 183.634 90.9317 183.404C91.0023 183.285 91.073 183.17 91.1304 183.077C91.2011 182.879 91.2806 182.649 91.2983 182.578C91.3424 182.402 91.3778 182.229 91.3998 182.092C91.4396 181.69 91.4793 181.289 91.5103 180.887C91.55 180.388 91.6251 179.902 91.7355 179.438C91.2143 179.049 90.7108 178.639 90.2383 178.188C88.6085 176.576 87.3718 174.474 86.2058 172.508C84.3155 169.333 82.3324 166.148 80.8308 162.765C79.2452 159.201 76.7718 156.639 76.7012 152.929C76.3611 152.09 76.8293 150.504 76.7012 149.515C76.7718 150.204 76.8072 148.588 76.7012 147.757C76.5687 146.892 77.77 147.126 77.6773 146.256C77.6066 145.377 77.5801 144.498 77.6287 143.619C77.7479 141.494 78.1145 139.379 78.7417 137.343C79.8193 133.831 81.5286 130.598 83.3703 127.445C86.6696 121.792 90.7373 116.673 93.8202 110.865C93.9438 110.631 94.4297 109.602 94.4473 109.588C94.8493 108.656 95.2026 107.813 95.7768 106.93C96.6513 105.582 97.5213 104.231 98.3958 102.884C100.388 99.8098 102.684 96.939 105.37 94.4215C109.464 90.579 114.261 86.021 119.658 84.6916C120.409 84.1395 121.243 83.7155 122.149 83.4814C122.405 83.4152 123.226 83.0928 123.951 82.8675C124.291 82.6732 124.631 82.4833 124.98 82.2978C125.947 81.6971 126.914 81.1185 128.111 80.8623C137.603 77.1347 148.998 77.8281 158.423 80.8358C168.475 84.0423 176.725 90.3714 183.593 98.4274C187.149 102.597 188.885 106.298 192.073 110.754C194.865 114.659 199.524 121.394 202.289 125.316C208.839 134.609 214.771 142.148 211.882 153.795C210.743 158.393 208.618 161.767 205.889 165.596C204.515 167.526 202.086 170.719 200.699 172.641C199.529 174.262 196.159 177.234 196.088 177.305C196.084 177.556 198.743 179.482 198.822 180.087C198.91 180.754 198.985 181.412 199.047 182.075C199.308 182.79 199.286 183.771 199.396 184.508C199.674 186.359 200.041 188.201 200.438 190.029C201.366 194.327 202.806 200.735 203.566 205.342C207.571 208.235 211.975 208.645 216.255 211.128C220.631 213.663 226.002 219.789 229.854 223.075C239.915 231.665 241.527 235.618 249.411 246.311C252.533 250.546 251.99 253.638 253.611 258.646C255.086 263.191 256.517 267.745 258.257 272.197C258.624 273.115 258.624 273.111 258.253 272.179C258.407 272.515 258.562 272.85 258.721 273.186C258.986 273.743 259.255 274.299 259.534 274.851C260.099 275.96 260.677 277.064 261.247 278.168C262.188 279.997 263.164 281.799 264.211 283.565C266.569 287.554 269.237 291.347 271.754 295.239C274.546 299.549 276.842 304.103 278.808 308.846C279.267 309.959 279.704 311.077 280.098 312.212C281.626 314.173 282.536 316.09 283.07 318.572C283.167 319.027 283.269 319.482 283.366 319.937C283.37 319.954 283.397 320.065 283.428 320.188C283.498 320.343 283.653 320.745 283.794 321.129C284.112 321.491 284.404 322.361 284.638 322.728C284.974 323.249 285.358 323.744 285.685 324.274C286.533 325.638 287.253 327.198 287.663 328.748C289.664 336.318 283.158 341.826 277.169 344.935C271.64 347.801 265.739 349.131 259.511 349.352C255.519 349.493 251.601 348.883 247.785 347.792C246.88 347.532 245.935 347.391 245.007 347.227C244.049 347.059 245.047 347.258 245.197 347.262C244.817 347.254 244.433 347.223 244.053 347.205C242.732 347.143 241.412 347.152 240.096 347.117C242.481 348.861 244.565 350.986 245.444 353.91C245.815 355.146 245.939 356.573 245.793 357.982C337.912 350.032 410.182 273.288 410.182 179.787C410.186 80.9816 329.507 0.894165 229.986 0.894165Z" fill="#6833FF"/>
<path d="M143.181 109.089C140.089 107.27 136.233 107.526 132.682 108.043C121.067 109.734 109.61 113.731 100.291 120.869C97.4861 123.019 94.8625 125.466 92.9325 128.425C90.5872 132.016 89.3461 136.216 88.423 140.408C87.5441 144.396 86.9302 148.437 86.5769 152.505C86.2412 156.405 86.1485 160.349 86.7138 164.223C88.6748 177.702 98.6521 189.146 110.82 195.267C122.988 201.389 137.077 202.736 150.663 201.729C164.319 200.718 178.483 197.056 188.474 187.671C195.386 181.73 196.958 171.735 197.192 162.624C197.391 154.886 196.958 147.13 195.898 139.463C195.134 133.937 193.964 128.271 190.757 123.704C186.239 117.265 179.04 113.457 170.767 112.163C162.504 110.869 154.245 109.323 143.181 109.089Z" fill="#4B506B"/>
<path d="M268.385 289.444L266.768 287.942C279.89 273.813 283.914 253.85 287.8 234.54L287.84 234.342C291.833 214.519 296.934 194.044 311.328 180.595C314.848 177.309 318.015 175.428 321.301 174.677C325.638 173.687 330.16 175.048 332.55 178.069C333.941 179.831 334.741 182.207 334.917 185.14C335.597 196.327 328.089 205.368 320.828 214.113C319.861 215.279 318.858 216.485 317.909 217.66C309.186 228.463 303.245 239.748 300.26 251.2C298.431 258.218 297.314 268.111 302.393 275.377C305.599 279.957 311.297 283.305 318.434 284.793C326.804 286.538 343.945 287.222 364.752 272.175C366.302 271.053 367.866 269.856 369.38 268.694C375.458 264.039 381.747 259.225 389.344 257.516L389.83 259.671C382.706 261.274 376.615 265.938 370.723 270.448C369.195 271.618 367.618 272.824 366.046 273.963C358.78 279.215 350.875 283.208 343.181 285.504C334.4 288.123 325.92 288.614 317.984 286.957C310.29 285.354 304.111 281.688 300.582 276.644C295.017 268.69 296.174 258.116 298.122 250.648C301.187 238.891 307.264 227.328 316.191 216.277C317.149 215.094 318.156 213.879 319.128 212.709C326.115 204.295 333.34 195.594 332.713 185.281C332.563 182.808 331.923 180.847 330.819 179.447C328.659 176.717 324.728 176.17 321.795 176.841C318.907 177.499 316.062 179.208 312.838 182.22C298.921 195.223 293.931 215.319 290.009 234.792L289.969 234.991C286.016 254.588 281.93 274.86 268.385 289.444Z" fill="#E6D6FF"/>
<path d="M326.627 276.87C320.682 276.87 315.413 274.516 312.427 270.492C308.492 265.183 309.093 258.072 310.29 253.042C313.792 238.321 323.858 226.626 333.592 215.319C340.473 207.325 347.593 199.057 352.376 189.76C355.008 184.645 358.741 174.946 354.143 167.447C351.979 163.913 348.105 161.268 343.234 160C337.324 158.459 321.526 157.147 302.552 178.179C288.326 193.947 277.849 213.106 272.262 233.595C271.162 237.632 270.222 241.815 269.312 245.86C267.201 255.263 265.019 264.984 260.615 273.774L258.641 272.784C262.921 264.238 265.076 254.649 267.157 245.374C268.071 241.307 269.016 237.098 270.129 233.012C275.809 212.192 286.453 192.719 300.909 176.7C307.021 169.924 313.735 164.571 320.329 161.219C328.495 157.063 336.388 155.937 343.79 157.863C349.214 159.276 353.56 162.27 356.024 166.29C361.187 174.708 357.182 185.241 354.337 190.767C349.43 200.293 342.227 208.663 335.262 216.754C325.258 228.375 315.811 239.354 312.432 253.55C311.345 258.125 310.767 264.547 314.194 269.171C316.826 272.718 321.848 274.816 327.263 274.644C332.475 274.48 337.611 272.471 342.019 270.602C354.739 265.21 363.497 259.923 370.418 253.466C385.267 239.615 393.495 217.602 392.992 193.068C392.669 177.309 388.65 165.172 381.045 156.997C372.993 148.345 360.105 143.614 345.676 144.025C332.214 144.409 318.933 148.972 307.543 153.221C273.344 165.98 237.238 183.894 203.124 205.024L201.962 203.147C236.191 181.938 272.434 163.958 306.77 151.149C318.328 146.839 331.812 142.205 345.614 141.812C360.675 141.388 374.181 146.366 382.661 155.486C390.647 164.072 394.865 176.695 395.2 193.015C395.717 218.177 387.233 240.794 371.924 255.073C362.8 263.584 351.608 268.924 342.88 272.625C338.287 274.573 332.921 276.662 327.329 276.839C327.104 276.865 326.866 276.87 326.627 276.87Z" fill="#E6D6FF"/>
<path d="M212.098 151.763L211.652 149.599L256.786 140.333C280.857 135.391 302.366 130.581 321.778 121.783C337.549 114.632 358.776 101.409 370.321 79.0029L372.287 80.0144C360.45 102.985 338.782 116.5 322.692 123.797C303.073 132.692 281.44 137.528 257.232 142.497L212.098 151.763Z" fill="#E6D6FF"/>
<path d="M200.924 124.804L200.474 122.644C217.46 119.102 234.875 117.384 252.22 117.53C255.921 117.561 259.679 117.68 263.314 117.79C269.988 117.998 276.891 118.214 283.653 117.901C294.898 117.375 306.041 115.392 316.774 112.004C347.31 102.367 358.953 85.151 363.179 75.7479L365.193 76.6533C360.817 86.3921 348.799 104.213 317.44 114.111C306.527 117.556 295.194 119.575 283.759 120.109C276.913 120.427 269.966 120.211 263.248 120.003C259.626 119.888 255.881 119.773 252.202 119.742C235.012 119.592 217.756 121.293 200.924 124.804Z" fill="#E6D6FF"/>
<path d="M129.167 68.2131C118.16 68.2131 107.366 66.6806 97.2343 62.5245L98.0734 60.4795C118.708 68.9463 142.386 66.208 164.902 61.9901C181.8 58.8233 198.857 54.9278 215.354 51.156C219.452 50.2196 223.551 49.2833 227.65 48.3558C248.381 43.6697 267.09 39.9023 286.162 41.3112C293.604 41.8633 301.077 43.228 308.307 44.5486C319.039 46.5096 330.134 48.5369 341.1 47.8479L341.237 50.0518C330.001 50.7585 318.77 48.7047 307.905 46.7216C300.737 45.4099 293.321 44.0584 285.994 43.5151C267.232 42.1283 248.691 45.8604 228.131 50.5111C224.032 51.4386 219.938 52.375 215.839 53.3113C199.325 57.0875 182.246 60.9875 165.304 64.1631C153.397 66.3935 141.154 68.2131 129.167 68.2131Z" fill="#E6D6FF"/>
<path d="M251.133 29.6556C239.477 29.6556 227.901 28.441 216.824 24.3732C212.726 22.8672 208.689 20.9592 204.78 19.1174C197.369 15.6194 189.706 12.0022 181.632 11.1851L181.853 8.98999C190.307 9.84682 198.142 13.5436 205.721 17.1211C209.581 18.9452 213.578 20.8267 217.584 22.3018C236.496 29.2537 257.126 27.6548 277.077 26.109C288.887 25.1947 301.099 24.2496 312.993 25.0357L312.847 27.2397C301.112 26.4623 288.979 27.4031 277.249 28.3129C268.614 28.9798 259.847 29.6556 251.133 29.6556Z" fill="#E6D6FF"/>
<path d="M53.8735 172.001L53.6088 174.193L89.9111 178.577L90.1759 176.385L53.8735 172.001Z" fill="#E6D6FF"/>
<path d="M58.2836 138.805L56.9763 137.025C64.8026 131.265 73.4991 126.968 82.8271 124.256L83.4454 126.376C74.3647 129.017 65.9024 133.2 58.2836 138.805Z" fill="#E6D6FF"/>
<path d="M249.773 248.32L248.836 246.32C275.765 233.67 301.037 217.364 323.955 197.856C346.873 178.347 367.004 155.999 383.788 131.438C392.418 118.81 402.885 101.833 407.289 82.4524C411.666 63.1869 408.958 44.1555 399.86 30.2386C389.613 14.5682 370.635 4.25531 349.095 2.65648C331.433 1.34473 311.823 5.61565 290.804 15.35L289.876 13.3448C311.24 3.45148 331.221 -0.885689 349.258 0.452561C371.478 2.10439 391.088 12.7883 401.706 29.0284C411.131 43.4444 413.949 63.0942 409.44 82.9382C404.957 102.681 394.348 119.892 385.612 132.679C368.718 157.403 348.454 179.897 325.386 199.534C302.313 219.175 276.878 235.587 249.773 248.32Z" fill="#FFD200"/>
<path d="M87.9063 184.416C67.5587 179.085 48.9027 167.27 35.3789 151.158C30.0877 144.851 26.8061 139.273 25.0527 133.606C22.8179 126.376 23.3258 118.961 26.4439 113.267C29.7211 107.278 35.9839 102.645 45.5858 99.1032C55.1788 95.5655 63.1376 94.7882 69.9216 96.7271L69.3165 98.8515C63.0007 97.0451 55.4879 97.8047 46.3499 101.179C37.2692 104.527 31.3906 108.833 28.3828 114.332C25.5518 119.504 25.1101 126.297 27.1683 132.961C28.8289 138.336 31.978 143.672 37.0749 149.745C50.3072 165.512 68.5569 177.066 88.4672 182.287L87.9063 184.416Z" fill="#FFD200"/>
<path d="M69.3828 44.8444C48.779 37.8219 30.3748 24.2628 17.5576 6.66678L19.342 5.36829C31.8941 22.6021 49.9185 35.8786 70.0939 42.7553L69.3828 44.8444Z" fill="#FFD200"/>
<path d="M20 33.9442L18.1273 32.7737C24.4343 22.6772 32.2032 13.6186 41.2176 5.84973L42.6575 7.52365C33.8109 15.1468 26.1833 24.0376 20 33.9442Z" fill="#FFD200"/>
<path d="M350.044 321.213C349.399 321.213 348.75 321.169 348.097 321.076C345.654 320.727 343.671 319.777 342.364 318.324C340.871 316.668 340.385 314.248 341.065 311.85C341.741 309.447 343.419 307.641 345.557 307.009C347.615 306.399 349.329 305.821 350.839 305.304C355.57 303.696 358.423 302.725 360.432 305.79C362.663 309.191 362.142 314.182 359.213 317.397C357.005 319.83 353.609 321.213 350.044 321.213ZM356.837 305.989C355.826 305.989 354.275 306.47 351.546 307.398C350.018 307.919 348.282 308.506 346.18 309.129C344.775 309.544 343.658 310.785 343.19 312.45C342.721 314.115 343.026 315.758 344.002 316.849C345.212 318.192 347.067 318.7 348.406 318.89C351.935 319.393 355.45 318.249 357.575 315.913C359.805 313.457 360.251 309.544 358.582 307C358.14 306.32 357.676 305.989 356.837 305.989Z" fill="#FFD200"/>
<path d="M270.756 101.519C269.338 93.7016 270.637 85.5485 274.413 78.5569L276.357 79.6081C272.819 86.158 271.6 93.8032 272.929 101.126L270.756 101.519Z" fill="#FFD200"/>
<path d="M280.747 95.433C276.418 90.4731 268.703 88.9273 262.797 91.829L261.821 89.846C268.597 86.5158 277.448 88.2913 282.412 93.98L280.747 95.433Z" fill="#FFD200"/>
<path d="M106.562 117.799C104.38 143.425 114.861 169.823 134.03 186.964C122.608 169.426 117.052 148.137 118.448 127.255C118.836 121.452 119.852 115.423 123.324 110.755C118.116 113.034 112.679 114.8 106.562 117.799Z" fill="white"/>
<path d="M89.3813 243.44C85.7818 232.557 77.421 223.181 67.0242 218.353L67.5807 217.152C78.3043 222.125 86.9257 231.798 90.6401 243.02L89.3813 243.44Z" fill="#7C8095"/>
<path d="M89.7259 242.194C89.3991 230.835 84.8985 219.435 77.3813 210.916L78.3751 210.037C86.0954 218.786 90.7153 230.49 91.0509 242.155L89.7259 242.194Z" fill="#7C8095"/>
<path d="M77.6993 243.188C70.774 236.828 61.0485 233.613 51.6984 234.58L51.5615 233.264C61.287 232.257 71.3924 235.6 78.5959 242.212L77.6993 243.188Z" fill="#7C8095"/>
<path d="M56.2785 244.928C52.9748 243.352 49.3002 242.636 45.6476 242.848L45.5725 241.527C49.4503 241.298 53.3458 242.066 56.8527 243.736L56.2785 244.928Z" fill="#7C8095"/>
<path d="M57.365 251.717C51.7161 251.054 45.9745 250.908 40.299 251.288L40.2107 249.968C45.97 249.583 51.7912 249.729 57.524 250.401L57.365 251.717Z" fill="#7C8095"/>
<path d="M35.6085 260.563L35.5157 259.243C38.2099 259.048 40.9482 258.686 43.5982 258.333C48.0679 257.737 52.6922 257.118 57.2943 257.304L57.2413 258.629C52.754 258.452 48.1872 259.057 43.7705 259.649C41.1028 260.002 38.3424 260.369 35.6085 260.563Z" fill="#7C8095"/>
<path d="M35.0476 271.256L34.7075 269.975C38.9917 268.831 43.3863 267.891 47.7632 267.184C51.4114 266.592 55.616 266.102 59.2995 267.798L58.7474 268.999C55.404 267.462 51.4334 267.93 47.9752 268.491C43.638 269.194 39.292 270.125 35.0476 271.256Z" fill="#7C8095"/>
<path d="M199.052 242.168C197.038 230.199 201.494 217.143 210.407 208.906L211.308 209.878C202.713 217.819 198.416 230.406 200.359 241.947L199.052 242.168Z" fill="#7C8095"/>
<path d="M202.355 242.318L201.052 242.079C203.04 231.188 209.842 221.198 219.24 215.35L219.942 216.476C210.853 222.129 204.281 231.793 202.355 242.318Z" fill="#7C8095"/>
<path d="M211.153 241.364L210.323 240.331C218.158 234.055 228.4 230.742 238.435 231.254L238.369 232.579C228.665 232.089 218.741 235.287 211.153 241.364Z" fill="#7C8095"/>
<path d="M233.029 242.945L232.543 241.713C236.465 240.163 240.736 239.708 244.897 240.406L244.68 241.713C240.754 241.055 236.726 241.483 233.029 242.945Z" fill="#7C8095"/>
<path d="M233.723 250.189L233.387 248.908C238.629 247.534 244.031 246.973 249.446 247.234L249.384 248.559C244.097 248.303 238.833 248.85 233.723 250.189Z" fill="#7C8095"/>
<path d="M253.333 257.286C246.447 256.465 239.438 256.018 232.504 255.965L232.512 254.641C239.495 254.698 246.553 255.144 253.487 255.97L253.333 257.286Z" fill="#7C8095"/>
<path d="M255.687 267.612C249.247 264.128 241.443 263.01 234.288 264.547L234.01 263.253C241.474 261.65 249.605 262.816 256.318 266.446L255.687 267.612Z" fill="#7C8095"/>
<path d="M143.34 381.033C128.584 381.033 114.141 377.221 102.353 370.163L103.033 369.028C115.449 376.457 130.872 380.229 146.462 379.65C160.812 379.116 175.824 374.96 189.874 367.624L190.488 368.798C176.266 376.223 161.06 380.436 146.511 380.975C145.451 381.01 144.391 381.033 143.34 381.033Z" fill="#7C8095"/>
<path d="M149.205 393.576C140.288 393.576 130.549 391.99 119.583 388.761C106.58 384.932 96.8632 380.299 89.0104 374.186L89.823 373.14C97.539 379.146 107.114 383.704 119.958 387.489C132.541 391.195 143.477 392.714 153.379 392.131C170.025 391.151 187.082 384.177 204.069 371.408L204.864 372.468C187.665 385.396 170.37 392.458 153.454 393.456C152.063 393.536 150.645 393.576 149.205 393.576Z" fill="#7C8095"/>
<path d="M144.965 225.897C139.431 225.897 133.579 225.561 127.347 224.89C120.585 224.161 115.493 223.269 110.838 221.988C101.165 219.325 92.0182 214.471 84.395 207.952L85.2563 206.945C92.7381 213.34 101.704 218.097 111.191 220.707C115.771 221.97 120.802 222.854 127.488 223.569C142.669 225.203 155.592 224.832 167.009 222.447C180.965 219.528 193.005 213.446 201.825 204.86L202.748 205.81C193.747 214.568 181.482 220.773 167.283 223.746C160.424 225.181 153.039 225.897 144.965 225.897Z" fill="#7C8095"/>
<path d="M147.907 241.907L147.845 236.117C147.805 232.513 147.765 228.786 148.75 225.195L150.027 225.544C149.09 228.958 149.13 232.588 149.17 236.1L149.232 241.89L147.907 241.907Z" fill="#7C8095"/>
<path d="M138.186 242.071L136.861 242.049C136.949 236.493 137.386 230.888 138.159 225.385L139.471 225.57C138.707 231.02 138.274 236.572 138.186 242.071Z" fill="#7C8095"/>
<path d="M283.498 320.657C278.794 312.433 271.361 306.302 264.171 300.371L265.014 299.351C271.957 305.079 279.828 311.567 284.651 320.003L283.498 320.657Z" fill="#7C8095"/>
<path d="M241.889 295.128C239.553 292.191 236.085 290.164 232.38 289.568L232.592 288.26C236.62 288.91 240.387 291.114 242.927 294.302L241.889 295.128Z" fill="#7C8095"/>
<path d="M6.77207 324.26L5.63257 323.58C7.57148 320.338 9.37348 317.892 11.2992 315.882C15.3227 311.691 20.5653 308.771 25.1896 306.196L25.8344 307.353C21.2897 309.884 16.1442 312.751 12.2576 316.801C10.4026 318.735 8.65799 321.107 6.77207 324.26Z" fill="#7C8095"/>
<path d="M49.8169 298.339L48.9689 297.323C52.3035 294.541 56.3403 292.752 60.6421 292.147L60.8276 293.459C56.8261 294.02 52.9174 295.755 49.8169 298.339Z" fill="#7C8095"/>
<path d="M90.2426 238.537L89.8363 237.274C99.2791 234.249 109.985 230.821 120.665 231.506L120.581 232.827C110.153 232.155 99.5751 235.547 90.2426 238.537Z" fill="#7C8095"/>
<path d="M198.95 237.376C190.262 233.26 180.59 230.817 170.988 230.318L171.059 228.993C180.833 229.505 190.673 231.988 199.52 236.179L198.95 237.376Z" fill="#7C8095"/>
<path d="M113.647 208.539C112.71 208.539 111.792 208.319 110.922 208.067C104.473 206.207 98.5726 202.334 94.3016 197.158L95.3219 196.314C99.425 201.287 105.092 205.01 111.288 206.795C112.264 207.077 113.298 207.316 114.256 207.17C115.047 207.051 115.965 206.561 116.248 205.739C116.557 204.834 116.036 203.853 115.497 203.288C114.821 202.581 113.916 202.122 112.958 201.636L112.825 201.57C110.321 200.298 107.101 198.527 104.429 196.067C101.664 193.523 99.818 190.541 99.0981 187.45L100.388 187.149C101.223 190.727 103.537 193.443 105.326 195.091C107.878 197.44 110.997 199.154 113.426 200.386L113.558 200.452C114.574 200.969 115.625 201.499 116.46 202.369C117.511 203.469 117.922 204.957 117.507 206.163C117.1 207.351 115.904 208.257 114.459 208.478C114.185 208.522 113.916 208.539 113.647 208.539Z" fill="#7C8095"/>
<path d="M174.411 208.619C173.515 208.619 172.795 208.456 172.176 208.116C171.121 207.533 170.507 206.389 170.688 205.333C170.798 204.688 171.16 204.176 171.505 203.761C173.21 201.685 175.577 200.404 177.869 199.167C178.938 198.589 180.042 197.993 181.049 197.326C185.007 194.711 187.992 190.586 189.238 186.006L190.514 186.355C189.185 191.239 186.005 195.643 181.778 198.434C180.723 199.132 179.592 199.742 178.497 200.333C176.218 201.566 174.067 202.727 172.53 204.604C172.3 204.887 172.053 205.218 171.995 205.558C171.898 206.119 172.349 206.698 172.821 206.958C173.338 207.246 174.009 207.347 174.937 207.276C178.784 206.994 181.924 204.578 185.241 202.016C188.438 199.552 191.742 197.008 195.779 196.495L195.947 197.811C192.268 198.28 189.251 200.603 186.053 203.067C182.723 205.633 179.278 208.288 175.034 208.597C174.813 208.61 174.61 208.619 174.411 208.619Z" fill="#7C8095"/>
<path d="M83.4586 168.878C82.7122 160.539 82.3854 152.068 82.487 143.698C82.5488 138.681 82.8138 133.408 85.2827 128.92C87.2481 125.343 90.4016 122.671 93.4535 120.087C94.2088 119.446 94.9949 118.784 95.7414 118.121C97.2165 116.814 98.6608 115.401 100.056 114.04C102.508 111.647 105.043 109.173 107.878 107.106C118.377 99.4655 131.759 98.1361 142.249 97.8313C151.564 97.5619 158.595 98.1361 165.052 99.6951C173.196 101.665 180.192 105.34 185.28 110.322C188.354 113.329 190.841 116.902 193.244 120.361C194.361 121.968 195.518 123.629 196.715 125.206C197.709 126.518 198.782 127.838 199.82 129.119C203.844 134.079 208.004 139.211 209.294 145.536C210.72 152.532 208.428 159.457 205.738 166.533L204.502 166.06C207.116 159.174 209.351 152.443 207.995 145.796C206.768 139.79 202.713 134.786 198.791 129.949C197.749 128.664 196.667 127.33 195.66 126.001C194.445 124.402 193.283 122.732 192.157 121.112C189.79 117.706 187.339 114.186 184.353 111.262C179.437 106.448 172.653 102.893 164.743 100.98C158.409 99.4478 151.484 98.8825 142.293 99.1519C131.998 99.4522 118.871 100.751 108.665 108.175C105.909 110.18 103.409 112.623 100.988 114.986C99.5794 116.359 98.1264 117.781 96.6247 119.111C95.865 119.782 95.0789 120.453 94.3148 121.098C91.3556 123.603 88.2993 126.195 86.4487 129.556C84.13 133.774 83.8782 138.862 83.8164 143.712C83.7148 152.037 84.0416 160.464 84.7836 168.759L83.4586 168.878Z" fill="#7C8095"/>
<path d="M145.597 202.705C137.073 202.705 128.553 201.46 120.391 198.964C111.394 196.213 103.828 192.238 97.8924 187.145C93.0915 183.029 89.1606 178.025 85.3579 173.184C81.8908 168.772 77.96 163.768 76.4141 157.819C75.2393 153.305 75.5176 148.636 75.9327 143.849C76.2816 139.821 76.7233 135.912 78.2426 132.321C79.6869 128.911 82.0056 126.019 84.2493 123.227C85.1636 122.088 86.1087 120.908 86.97 119.725C89.3771 116.412 91.3646 112.707 93.2858 109.12C95.3219 105.326 97.4242 101.4 100.057 97.8578C106.037 89.8151 114.791 83.8526 125.377 80.6152C135.271 77.5897 146.339 77.1658 156.541 79.4227C161.731 80.571 166.015 82.1654 169.641 84.2987C175.087 87.5007 179.349 92.1162 182.458 95.7864C188.703 103.153 194.052 111.333 199.224 119.243C200.924 121.84 202.612 124.141 204.246 126.363C208.3 131.884 211.803 136.654 212.655 142.524C213.839 150.655 211.781 159.152 207.006 165.839C205.509 167.933 203.764 169.841 202.077 171.682C200.452 173.458 198.769 175.295 197.365 177.256C196.362 178.652 195.452 180.176 194.569 181.651C193.288 183.789 191.967 186.001 190.293 187.962C186.747 192.123 181.597 195.281 174.08 197.909C164.937 201.102 155.265 202.705 145.597 202.705ZM143.26 80.1956C137.391 80.1956 131.521 81.0436 126.027 82.7263C115.895 85.8268 107.53 91.5155 101.832 99.1784C99.2969 102.588 97.2299 106.439 95.2336 110.167C93.277 113.82 91.2497 117.596 88.7587 121.028C87.8666 122.256 86.9037 123.452 85.9718 124.614C83.7237 127.414 81.5993 130.06 80.2743 133.187C78.8786 136.486 78.4767 140.059 78.1322 144.047C77.7347 148.632 77.4653 153.097 78.5518 157.271C79.9828 162.774 83.7591 167.584 87.0936 171.828C90.8301 176.585 94.6947 181.501 99.3278 185.48C105.03 190.374 112.335 194.203 121.036 196.862C138.013 202.051 156.594 201.685 173.356 195.833C180.488 193.342 185.338 190.387 188.62 186.54C190.17 184.72 191.389 182.684 192.678 180.525C193.584 179.01 194.516 177.446 195.576 175.975C197.06 173.908 198.787 172.023 200.456 170.198C202.099 168.401 203.8 166.546 205.217 164.563C209.665 158.335 211.582 150.421 210.478 142.85C209.7 137.528 206.511 133.182 202.475 127.679C200.823 125.431 199.118 123.108 197.387 120.458C192.25 112.605 186.937 104.483 180.784 97.2174C177.79 93.6841 173.691 89.2365 168.533 86.2067C165.11 84.1927 161.033 82.6822 156.073 81.5824C151.895 80.6549 147.575 80.1956 143.26 80.1956Z" fill="#4B506B"/>
<path d="M29.7476 353.433C29.4252 353.433 29.1028 353.428 28.7848 353.411C22.9769 353.159 17.5046 351.224 12.2134 349.356C9.21011 348.296 5.10261 346.843 2.7927 343.566C1.24245 341.366 0.57111 338.389 0.893527 335.187C1.18503 332.33 2.20086 329.583 3.13278 327.229C5.71211 320.714 8.80378 314.336 12.3194 308.272C14.4659 304.575 16.8156 300.91 19.0902 297.363C24.4918 288.945 30.07 280.244 33.1396 270.678C31.9824 267.4 32.0487 264.265 33.3428 261.588C33.5239 261.217 33.7182 260.864 33.9125 260.519C34.2879 259.848 34.6413 259.216 34.7914 258.567C34.9063 258.068 34.9195 257.498 34.9284 256.898C34.946 255.891 34.9681 254.751 35.529 253.7C36.0016 252.812 36.748 252.203 37.4061 251.664C37.9759 251.196 38.5147 250.754 38.762 250.228C38.9299 249.871 38.9961 249.402 39.0624 248.912C39.0933 248.678 39.1286 248.444 39.1684 248.214C39.4687 246.563 40.2946 245.003 41.4827 243.82C41.8625 243.444 42.2644 243.113 42.6575 242.8C43.2935 242.283 43.8898 241.797 44.2519 241.205C44.5037 240.794 44.6671 240.286 44.8394 239.748C44.9409 239.425 45.0514 239.094 45.1794 238.763C46.2041 236.17 48.4169 234.32 50.3646 232.69L50.4264 232.637C55.1214 228.71 59.7059 224.537 64.0607 220.23C64.5819 219.714 65.1693 219.131 65.5359 218.495C65.7081 218.194 65.8494 217.85 65.9996 217.483C66.1144 217.201 66.2337 216.909 66.3794 216.613C68.1726 212.916 72.1653 211.366 76.1314 210.112C78.3928 208.672 80.9765 207.44 84.0196 206.34C85.1326 205.938 85.9585 205.081 86.228 204.039C86.44 203.226 86.8242 202.453 87.1952 201.711C87.6192 200.859 88.0211 200.051 88.1359 199.269C88.2905 198.222 87.946 197.065 87.5839 195.846C87.0804 194.15 86.5106 192.229 87.3675 190.369C87.553 189.963 87.787 189.614 88.0123 189.274C88.3214 188.806 88.5909 188.404 88.6041 188.046C88.6129 187.847 88.5379 187.582 88.4628 187.3C88.4186 187.132 88.3745 186.964 88.3347 186.796C87.712 183.881 89.483 181.289 91.1967 179.089L92.9413 180.445C91.5368 182.251 90.0704 184.349 90.4944 186.332C90.5209 186.465 90.5563 186.593 90.5916 186.726C90.702 187.136 90.8257 187.6 90.808 188.134C90.7727 189.111 90.2824 189.848 89.8496 190.497C89.6641 190.78 89.4875 191.045 89.3726 191.297C88.8647 192.401 89.2534 193.708 89.6995 195.223C90.1146 196.619 90.543 198.063 90.3178 199.596C90.1544 200.731 89.6553 201.733 89.1694 202.705C88.8338 203.381 88.5202 204.017 88.3612 204.609C87.9063 206.353 86.5592 207.78 84.766 208.429C81.8201 209.489 79.3468 210.677 77.1959 212.06L77.0722 212.139L76.9309 212.183C73.3799 213.301 69.798 214.634 68.3625 217.589C68.2433 217.832 68.1417 218.079 68.0401 218.331C67.8723 218.746 67.6956 219.17 67.4527 219.599C66.936 220.5 66.2028 221.229 65.6154 221.812C61.2208 226.158 56.5877 230.375 51.8486 234.342L51.7868 234.395C49.9539 235.927 48.0591 237.513 47.2376 239.584C47.1316 239.849 47.0389 240.136 46.9417 240.432C46.7385 241.068 46.5221 241.726 46.1379 242.362C45.5814 243.277 44.804 243.908 44.0532 244.518C43.6866 244.814 43.3421 245.096 43.0418 245.397C42.1673 246.262 41.5622 247.411 41.3414 248.621C41.306 248.819 41.2795 249.023 41.2486 249.221C41.1647 249.826 41.0719 250.515 40.7584 251.178C40.299 252.154 39.504 252.803 38.8018 253.377C38.2541 253.824 37.7374 254.248 37.4724 254.747C37.1588 255.334 37.1455 256.08 37.1279 256.946C37.1146 257.635 37.1014 258.346 36.9335 259.075C36.7127 260.025 36.2666 260.824 35.8338 261.597C35.6527 261.924 35.476 262.237 35.3259 262.546C34.257 264.759 34.2614 267.427 35.3347 270.258L35.4716 270.616L35.3568 270.982C32.2254 280.973 26.4925 289.912 20.9452 298.556C18.6839 302.08 16.3474 305.728 14.2274 309.381C10.7648 315.348 7.72169 321.628 5.18211 328.041C4.26344 330.356 3.34919 332.833 3.08861 335.408C2.81919 338.085 3.35361 340.532 4.5947 342.294C6.35253 344.794 9.41769 346.026 12.9466 347.276C18.0876 349.091 23.4009 350.968 28.8775 351.207C34.4249 351.45 40.9394 349.294 47.242 347.21C52.7673 345.381 58.4825 343.491 63.566 343.221L63.6853 345.425C58.8932 345.681 53.3238 347.523 47.9354 349.307C41.7963 351.335 35.4539 353.433 29.7476 353.433Z" fill="#4B506B"/>
<path d="M260.077 349.763C257.533 349.763 254.984 349.511 252.476 348.998C251.734 348.848 250.987 348.672 250.272 348.504C248.836 348.164 247.48 347.846 246.089 347.687C245.118 347.576 244.146 347.541 243.117 347.51C241.867 347.47 240.577 347.426 239.292 347.227C237.017 346.878 230.551 344.374 229.014 342.064L230.852 340.841C231.806 342.272 237.424 344.705 239.623 345.046C240.78 345.222 241.951 345.262 243.187 345.302C244.217 345.337 245.281 345.372 246.341 345.492C247.86 345.668 249.344 346.017 250.78 346.353C251.482 346.521 252.211 346.689 252.922 346.834C262.175 348.729 272.019 346.852 279.925 341.693C283.357 339.454 285.318 337.131 285.91 334.591C286.586 331.707 285.428 328.492 284.497 325.913L284.461 325.802C282.787 318.987 280.893 311.262 277.032 304.646C275.447 301.934 273.503 299.355 271.618 296.864C270.54 295.438 269.427 293.962 268.38 292.465C264.312 286.635 261.101 280.218 258.001 274.008C256.243 270.488 254.423 266.848 253.624 262.834C253.43 261.844 253.297 260.846 253.174 259.879C252.957 258.24 252.758 256.69 252.264 255.219C251.725 253.616 250.824 252.088 249.949 250.613L246.973 245.582C245.846 243.679 244.685 241.713 243.417 239.871C239.606 234.342 234.619 229.607 229.796 225.027C223.251 218.813 215.831 211.768 206.838 208.447L206.485 208.319C204.939 207.753 203.186 207.113 202.077 205.607C201.061 204.225 200.902 202.533 200.761 201.036C200.151 194.627 198.946 188.28 197.179 182.137C196.843 180.962 196.406 179.663 195.505 179.103L196.671 177.225C198.239 178.197 198.853 179.955 199.303 181.523C201.105 187.799 202.338 194.278 202.956 200.784C203.08 202.096 203.208 203.407 203.861 204.3C204.573 205.271 205.871 205.744 207.245 206.243L207.607 206.375C217.023 209.851 224.62 217.064 231.32 223.424C236.222 228.079 241.293 232.893 245.237 238.613C246.549 240.516 247.732 242.517 248.876 244.452L251.853 249.482C252.785 251.059 253.748 252.684 254.362 254.508C254.923 256.182 255.148 257.914 255.369 259.583C255.492 260.515 255.616 261.478 255.797 262.392C256.535 266.111 258.288 269.618 259.98 273.01C263.049 279.149 266.22 285.496 270.195 291.193C271.216 292.655 272.315 294.113 273.38 295.521C275.301 298.065 277.289 300.698 278.94 303.524C282.951 310.397 284.89 318.263 286.594 325.21C287.619 328.055 288.878 331.588 288.061 335.086C287.332 338.209 285.066 340.969 281.131 343.535C274.881 347.616 267.492 349.763 260.077 349.763Z" fill="#4B506B"/>
<path d="M66.141 345.381C64.308 345.381 62.7887 343.963 62.6695 342.126L56.4419 245.949C56.3801 244.999 56.7158 244.059 57.3606 243.361C58.0054 242.663 58.9241 242.257 59.8737 242.248L231.059 240.273C231.073 240.273 231.086 240.273 231.099 240.273C232.044 240.273 232.928 240.644 233.586 241.32C234.257 242.005 234.606 242.915 234.575 243.873L231.254 338.92C231.187 340.766 229.69 342.241 227.844 342.276L66.2072 345.386C66.1851 345.381 66.163 345.381 66.141 345.381ZM231.099 242.477C231.095 242.477 231.09 242.477 231.086 242.477L59.9002 244.452C59.5469 244.456 59.22 244.602 58.9815 244.858C58.743 245.114 58.6238 245.45 58.6459 245.803L64.8734 341.98C64.9175 342.661 65.4785 343.204 66.1675 343.168L227.804 340.059C228.48 340.046 229.028 339.507 229.05 338.831L232.371 243.785C232.384 243.436 232.256 243.105 232.009 242.853C231.766 242.614 231.444 242.477 231.099 242.477Z" fill="#4B506B"/>
<path d="M59.3437 371.064C55.6028 371.064 52.2019 368.75 50.8416 365.256L47.5865 356.909C47.3966 356.418 47.4319 355.875 47.6925 355.416C47.9531 354.956 48.3948 354.638 48.9115 354.546C54.8961 353.472 60.1387 349.608 62.9389 344.215L63.0934 343.924L65.0544 344.939L64.9043 345.231C61.8744 351.065 56.2741 355.292 49.8479 356.617L52.9042 364.457C53.9554 367.146 56.6098 368.917 59.485 368.86L228.568 365.486C236.474 365.327 243.342 360.111 245.674 352.646C239.027 351.622 233.078 347.916 229.222 342.36L229.028 342.077L230.843 340.819L231.037 341.101C234.734 346.432 240.555 349.89 247.008 350.593L248.443 350.752L248.152 351.971C245.974 361.042 237.94 367.504 228.612 367.694L59.5292 371.068C59.4629 371.059 59.4011 371.064 59.3437 371.064Z" fill="#4B506B"/>
<path d="M53.958 368.132L51.6615 396.854L53.8628 397.03L56.1593 368.308L53.958 368.132Z" fill="#4B506B"/>
<path d="M63.3266 370.408L60.9347 396.817L63.134 397.017L65.5258 370.608L63.3266 370.408Z" fill="#4B506B"/>
<path d="M73.043 368.642L70.6511 395.051L72.8504 395.25L75.2423 368.841L73.043 368.642Z" fill="#4B506B"/>
<path d="M80.5511 368.642L78.1592 395.051L80.3584 395.25L82.7503 368.841L80.5511 368.642Z" fill="#4B506B"/>
<path d="M239.887 363.339L237.688 363.538L240.079 389.947L242.279 389.748L239.887 363.339Z" fill="#4B506B"/>
<path d="M231.091 366.868L228.892 367.067L231.283 393.476L233.483 393.277L231.091 366.868Z" fill="#4B506B"/>
<path d="M220.496 366.868L218.296 367.067L220.688 393.476L222.888 393.277L220.496 366.868Z" fill="#4B506B"/>
<path d="M212.987 366.868L210.788 367.068L213.18 393.477L215.379 393.277L212.987 366.868Z" fill="#4B506B"/>
<path d="M246.152 351.602L49.0981 355.406L49.1408 357.614L246.195 353.81L246.152 351.602Z" fill="#4B506B"/>
<path d="M88.7587 393.019L86.6078 392.525C87.2173 389.87 87.8489 387.123 87.6104 384.438C87.5574 383.837 87.4602 383.241 87.3586 382.605C87.204 381.629 87.0406 380.622 87.0406 379.575C87.0406 377.839 87.4823 376.187 87.9063 374.593C88.348 372.937 88.7675 371.373 88.6836 369.805L90.8875 369.686C90.9891 371.598 90.5077 373.409 90.0395 375.158C89.6332 376.682 89.249 378.122 89.249 379.571C89.249 380.441 89.3903 381.324 89.5405 382.251C89.642 382.896 89.748 383.559 89.8099 384.239C90.0749 387.273 89.377 390.325 88.7587 393.019Z" fill="#4B506B"/>
<path d="M204.838 390.404C203.981 387.763 203.658 384.906 203.901 382.141C203.954 381.536 204.034 380.935 204.113 380.352C204.263 379.235 204.405 378.179 204.365 377.132C204.325 376.068 204.1 374.981 203.861 373.833C203.415 371.673 202.952 369.434 203.751 367.208L205.831 367.955C205.244 369.598 205.624 371.435 206.026 373.387C206.273 374.575 206.525 375.803 206.573 377.048C206.617 378.285 206.458 379.482 206.304 380.644C206.224 381.227 206.154 381.779 206.101 382.335C205.88 384.809 206.171 387.361 206.935 389.724L204.838 390.404Z" fill="#4B506B"/>
<path d="M144.824 217.271C139.961 217.271 135.05 217.108 130.094 216.914C126.349 216.764 122.105 216.596 117.971 215.827C107.212 213.822 97.5302 207.815 88.6748 201.623L89.9424 199.812C98.5946 205.863 108.029 211.724 118.377 213.654C122.356 214.396 126.517 214.56 130.187 214.705C143.212 215.222 155.914 215.496 168.082 213.199C177.706 211.384 191.239 207.025 201.083 196.584L202.691 198.099C192.44 208.968 178.435 213.491 168.493 215.368C160.759 216.825 152.862 217.271 144.824 217.271Z" fill="#4B506B"/>
<path d="M91.762 180.816C86.0601 169.249 84.1741 155.884 86.462 143.191C87.8311 135.576 90.5297 129.313 94.4826 124.579C97.009 121.549 100.233 118.881 104.349 116.426C112.587 111.501 122.511 108.524 133.848 107.574C145.023 106.643 156.13 107.822 164.562 108.957C170.352 109.734 176.447 110.746 181.721 113.718C188.125 117.331 193.195 123.854 195.995 132.087C198.72 140.099 199.003 148.619 198.946 155.142C198.879 162.686 198.283 170.296 197.179 177.76L194.993 177.437C196.084 170.075 196.671 162.566 196.737 155.124C196.795 148.773 196.521 140.496 193.902 132.798C191.274 125.082 186.561 118.987 180.63 115.644C175.696 112.861 169.84 111.898 164.266 111.148C155.949 110.03 144.996 108.864 134.034 109.778C123.036 110.697 113.43 113.572 105.485 118.32C101.589 120.648 98.546 123.161 96.183 125.992C92.4775 130.431 89.9423 136.349 88.6394 143.584C86.4355 155.818 88.2507 168.692 93.745 179.84L91.762 180.816Z" fill="#4B506B"/>
<g clip-path="url(#clip0)">
<path d="M173.765 301.824C173.765 303.314 173.464 305.313 172.108 306.742C170.75 308.172 168.694 308.626 167.265 308.843C161.367 309.738 154.846 308.575 147.329 305.286C139.181 301.72 131.038 296.28 123.126 289.114C118.485 284.911 116.911 282.488 115.901 280.494C112.503 273.789 113.829 271.257 115.121 269.937C116.347 268.684 118.168 267.886 120.688 267.496C123.536 267.054 126.642 267.101 130.463 267.643C145.114 269.719 158.831 277.474 168.098 288.915C171.898 293.607 173.698 297.649 173.764 301.639C173.765 301.699 173.765 301.76 173.765 301.824ZM114.793 273.517C114.793 274.956 115.307 277.012 116.838 280.032C117.802 281.936 119.318 284.261 123.832 288.349C131.66 295.438 139.707 300.817 147.75 304.337C155.077 307.543 161.407 308.682 167.101 307.817C168.377 307.623 170.205 307.228 171.341 306.03C172.516 304.792 172.736 302.964 172.714 301.651C172.652 297.906 170.925 294.064 167.279 289.562C158.178 278.324 144.706 270.71 130.316 268.669C126.601 268.142 123.594 268.094 120.852 268.52C118.565 268.874 116.937 269.574 115.876 270.659C115.334 271.214 114.793 272.041 114.793 273.517Z" fill="#FFD200"/>
<path d="M174.317 274.886C174.317 276.133 174.011 277.516 173.395 279.07C172.343 281.723 170.734 284.345 168.334 287.325C159.13 298.748 145.457 306.474 130.818 308.522C124.815 309.362 120.387 308.83 116.88 306.847C115.556 306.098 113.855 304.793 113.272 302.826C112.711 300.937 113.355 298.953 113.886 297.626C116.083 292.142 120.387 287.179 127.043 282.455C134.26 277.335 143.107 273.176 153.339 270.096C159.341 268.29 162.246 268.187 164.491 268.345C172.045 268.877 173.579 271.301 174.078 273.079C174.236 273.648 174.317 274.249 174.317 274.886ZM114.104 301.273C114.104 301.698 114.155 302.125 114.278 302.538C114.762 304.171 116.242 305.294 117.397 305.947C120.69 307.808 124.906 308.301 130.666 307.495C145.043 305.484 158.473 297.896 167.511 286.677C169.844 283.781 171.403 281.242 172.416 278.687C173.262 276.557 173.474 274.812 173.064 273.352C172.652 271.88 171.307 269.866 164.418 269.38C162.273 269.229 159.484 269.331 153.646 271.088C143.522 274.136 134.778 278.244 127.655 283.298C121.165 287.903 116.98 292.716 114.859 298.01C114.511 298.887 114.104 300.076 114.104 301.273Z" fill="#FFD200"/>
<path d="M157.444 283.734C157.444 290.573 156.533 297.872 154.721 305.522C153.289 311.566 151.923 314.1 150.66 315.936C146.41 322.118 143.525 322.199 141.724 321.722C140.017 321.269 138.419 320.084 136.837 318.096C135.05 315.849 133.566 313.144 132.169 309.582C126.811 295.921 126.923 280.318 132.472 266.773C134.748 261.22 137.432 257.707 140.921 255.719C142.237 254.968 144.228 254.179 146.238 254.678C148.167 255.159 149.577 256.714 150.469 257.844C154.155 262.505 156.328 268.701 157.115 276.785C157.335 279.042 157.444 281.361 157.444 283.734ZM149.793 315.351C150.999 313.596 152.307 311.161 153.7 305.282C156.114 295.088 156.913 285.532 156.07 276.881C155.303 269 153.201 262.981 149.644 258.481C148.846 257.473 147.6 256.086 145.985 255.685C144.316 255.27 142.596 255.963 141.447 256.618C138.172 258.486 135.629 261.838 133.446 267.166C127.995 280.468 127.887 295.792 133.149 309.208C134.507 312.672 135.942 315.292 137.663 317.455C139.099 319.259 140.516 320.326 141.995 320.719C143.484 321.115 145.916 320.988 149.793 315.351Z" fill="#FFD200"/>
<path d="M148.738 288.182C148.738 285.115 146.225 282.62 143.126 282.608C140.026 282.596 137.513 285.073 137.513 288.139C137.513 291.206 140.026 293.701 143.126 293.713C146.225 293.725 148.738 291.248 148.738 288.182Z" fill="#4B506B"/>
</g>
<defs>
<clipPath id="clip0">
<rect width="68.1857" height="61.372" fill="white" transform="matrix(0 -1 0.999993 0.00375888 113 322.186)"/>
</clipPath>
</defs>
</svg>
