<svg width="83" height="114" viewBox="0 0 83 114" fill="none" xmlns="http://www.w3.org/2000/svg">
<path d="M73.1419 113.287C72.8392 113.287 72.5451 113.127 72.3895 112.846C70.5212 109.528 70.0455 105.496 71.0013 101.512C65.8593 103.092 60.0384 101.767 56.4447 98.1812C54.4554 96.1976 53.2618 93.7896 52.6736 91.1694C44.5304 97.2544 34.7525 102.724 23.7551 103.794C17.0563 104.448 8.5195 102.863 4.64467 96.4531C2.47804 92.8715 2.28777 88.5059 2.33102 85.5392C2.51265 73.4775 6.92373 62.2518 12.5803 52.5505C7.10536 51.4894 2.56886 47.9597 0.999035 43.278C-0.0734642 40.0817 0.294127 36.643 0.661718 34.3346C1.74287 27.5697 4.43277 21.0646 8.44599 15.5167C8.72709 15.1269 9.26767 15.0446 9.65256 15.3218C10.0374 15.6033 10.1239 16.1447 9.84715 16.5301C5.99394 21.8572 3.40784 28.1067 2.36994 34.6031C2.02829 36.7296 1.68665 39.8868 2.63806 42.7236C4.19924 47.388 8.94764 50.1858 13.5404 50.9394C17.7482 44.0142 22.5225 37.9163 26.7304 32.9011C35.1936 22.8143 44.4699 13.2603 54.304 4.51181C56.3106 2.72747 58.3215 1.0817 60.8428 0.566324C63.5716 0.011965 66.9837 1.34157 67.7146 4.21297C68.173 6.01897 67.4594 7.79466 66.7588 9.31915C59.6059 24.8282 47.6311 38.2411 33.0443 47.0978C28.9446 49.5838 22.7388 52.8796 16.053 52.8796C16.0054 52.8796 15.9535 52.8796 15.9059 52.8796C15.4259 52.8753 14.9502 52.8537 14.4831 52.8147C5.6004 67.7217 4.17329 78.2849 4.06517 85.5652C4.02193 88.3197 4.19059 92.3561 6.12801 95.5566C9.58336 101.278 17.4152 102.672 23.5907 102.07C34.5146 101.005 44.2666 95.3921 52.3579 89.2421C51.7525 83.9021 53.3439 77.9514 55.6965 73.0618C59.7573 64.6208 65.6863 56.968 72.8392 50.9264C74.409 49.6011 76.8697 48.4144 78.8288 48.7609C79.8321 48.9385 80.6278 49.4929 81.1338 50.3634C81.7652 51.4591 81.6787 52.7064 81.4927 53.8931C79.4212 66.8599 69.3795 77.0636 60.8601 84.4998C58.7972 86.3014 56.5787 88.1681 54.2088 90.0044C54.6629 92.6246 55.7484 95.0239 57.6729 96.9512C60.8774 100.147 66.1231 101.286 70.7245 99.7836C71.0315 99.684 71.3343 99.5714 71.637 99.4502C71.65 99.4112 71.6672 99.3679 71.6802 99.3289C73.4403 94.6645 76.8827 91.1347 81.1338 89.6536C81.4538 89.541 81.8084 89.6276 82.0463 89.8744C82.2798 90.1213 82.349 90.4808 82.2236 90.7969C80.4289 95.2491 77.0643 98.8525 73.0252 100.736C71.7624 104.678 72.0694 108.74 73.9074 111.997C74.1409 112.413 73.9939 112.941 73.5787 113.175C73.4317 113.249 73.2846 113.287 73.1419 113.287ZM79.5899 92.2521C77.3022 93.5687 75.3907 95.6216 74.0717 98.1725C76.3032 96.7347 78.2147 94.6904 79.5899 92.2521ZM78.0893 50.437C76.7832 50.437 75.0793 51.3032 73.9463 52.256C66.9794 58.1374 61.2017 65.5953 57.2447 73.8154C55.1732 78.1203 53.7072 83.2871 53.9667 87.9862C55.9949 86.3837 57.915 84.764 59.7097 83.1962C75.5075 69.3978 78.7293 60.1426 79.7715 53.6202C79.9099 52.7497 79.9878 51.8619 79.6245 51.2339C79.3737 50.8008 79.0234 50.5583 78.5217 50.4716C78.3833 50.45 78.2406 50.437 78.0893 50.437ZM15.4951 51.1386C15.6335 51.1429 15.7762 51.1473 15.9146 51.1473C22.2112 51.2122 28.1964 48.0117 32.1448 45.6167C46.4419 36.9418 58.1745 23.7931 65.1847 8.59587C65.7901 7.2836 66.3567 5.8977 66.0366 4.64173C65.5566 2.75778 63.0916 1.87861 61.1887 2.26839C59.087 2.69715 57.2793 4.18699 55.4543 5.81109C45.6807 14.5076 36.465 23.9967 28.058 34.0184C22.8166 40.2593 18.7126 45.9545 15.4951 51.1386Z" fill="#FFC908"/>
</svg>
