<svg width="18" height="15" viewBox="0 0 18 15" fill="none" xmlns="http://www.w3.org/2000/svg">
<path d="M2.93534 6.6165V2.44839V2.40181L7.47603 2.42509C7.55365 2.38629 7.73217 2.29004 7.82531 2.21552C7.91846 2.14101 7.97279 1.95162 7.98831 1.86624V0.701963C7.98055 0.601059 7.93709 0.366651 7.82531 0.236252C7.71354 0.105853 7.54589 0.0266879 7.47603 0.00340532H0.536932C0.474836 -0.00435654 0.313387 0.031348 0.16436 0.236261C0.0153321 0.441174 -0.00640114 0.585544 0.00136072 0.632115V14.6267C0.0246463 14.6578 0.0898459 14.7432 0.16436 14.8363C0.238873 14.9295 0.443786 14.9838 0.536929 14.9993H2.37649C2.44635 14.976 2.61866 14.9108 2.74906 14.8363C2.87946 14.7618 2.92758 14.6655 2.93534 14.6267V8.8752H7.1966C7.2587 8.85192 7.41083 8.7774 7.5226 8.66563C7.63437 8.55386 7.64679 8.02916 7.63903 7.78078C7.64679 7.54793 7.63437 7.03565 7.5226 6.84936C7.41083 6.66308 7.2587 6.6165 7.1966 6.6165H2.93534Z" fill="#6EC543"/>
<path d="M13.7633 0.00290042H11.4813C11.4114 -0.00486144 11.2531 -0.00175669 11.1786 0.0727571C11.1041 0.147271 11.0854 0.243518 11.0854 0.282327V14.2769C11.132 14.3856 11.2624 14.6449 11.4114 14.8125C11.5605 14.9802 11.7995 15.0066 11.9004 14.9988H17.3493C17.4191 14.9833 17.5868 14.9336 17.6985 14.8591C17.8103 14.7846 17.8538 14.5641 17.8615 14.4632V13.0428C17.846 12.9341 17.7917 12.6982 17.6985 12.6237C17.6054 12.5492 17.4269 12.5305 17.3493 12.5305H13.9961V0.282327C13.9961 0.235756 13.9822 0.128642 13.9263 0.0727571C13.8704 0.0168718 13.7943 0.00290042 13.7633 0.00290042Z" fill="#6EC543"/>
</svg>
