<svg width="19" height="15" viewBox="0 0 19 15" fill="none" xmlns="http://www.w3.org/2000/svg">
<path fill-rule="evenodd" clip-rule="evenodd" d="M18.8701 0H6.44888C5.58212 0.0286533 3.44458 0.593123 1.82854 2.62178C-0.191521 5.15759 -0.427911 8.12321 0.582118 9.39112C1.59215 10.659 3.09644 11.3252 4.23541 11.3037C5.14659 11.2865 5.93312 11.2966 6.21249 11.3037C6.20533 11.5903 6.14802 12.3138 5.9761 12.9155C5.80418 13.5172 5.43169 14.5559 5.26693 15C5.99759 14.9928 7.68241 14.7464 8.57639 13.8181C9.47037 12.8897 9.93742 11.755 10.0592 11.3037H12.8099C13.2755 11.2607 14.456 10.9083 15.4532 9.84241C16.4503 8.77651 16.8715 7.83668 16.9575 7.5H11.1122L12.1437 3.6533H15.0664C15.4675 3.54585 16.489 3.11605 17.3658 2.25645C18.2426 1.39685 18.734 0.393983 18.8701 0ZM8.36152 3.67477H5.76123C5.58215 3.74641 5.11653 4.00142 4.68673 4.44841C4.14948 5.00715 3.93458 5.26503 3.93458 5.9742C3.93458 6.68337 4.14948 6.94125 4.34289 7.15615C4.49762 7.32807 4.69389 7.42835 4.77269 7.45701H7.28702L8.36152 3.67477Z" fill="#7BB432"/>
</svg>
