<svg width="80" height="113" viewBox="0 0 80 113" fill="none" xmlns="http://www.w3.org/2000/svg">
<g clip-path="url(#clip0)">
<path d="M34.2227 43.3092C31.3334 40.132 28.3455 36.8482 24.6519 34.5175C23.4973 33.7894 22.2661 33.1509 21.0689 32.5324C20.1898 32.0784 19.2786 31.6069 18.4083 31.1028C15.0197 29.1453 12.0286 26.63 9.51916 23.6258L9.77121 23.4174C12.2555 26.3913 15.2153 28.8846 18.5725 30.8202C19.4391 31.3189 20.3458 31.7896 21.2204 32.2428C22.4195 32.8639 23.6616 33.5068 24.8263 34.2437C28.5558 36.5972 31.5595 39.8979 34.4646 43.0919L34.2227 43.3092Z" fill="#4B506B"/>
<path d="M74.5178 82.3551C61.5142 71.992 49.3547 60.4073 38.3702 47.92L38.614 47.7054C49.5846 60.1785 61.7328 71.7471 74.7217 82.1006L74.5178 82.3551Z" fill="#4B506B"/>
<path d="M75.575 58.9417C72.1119 54.1947 67.8953 50.111 63.0393 46.8023C61.1966 45.5462 59.2424 44.3923 57.3516 43.2777C55.3203 42.0819 53.2218 40.8414 51.2515 39.4712C44.8682 35.0328 39.6641 29.1182 34.6295 23.4002L34.8733 23.1856C39.8939 28.8894 45.0868 34.7879 51.4342 39.2035C53.3944 40.5649 55.4891 41.8001 57.5132 42.9969C59.4104 44.115 61.3692 45.2698 63.2201 46.532C68.1056 49.86 72.35 53.9721 75.8365 58.7467L75.575 58.9417Z" fill="#4B506B"/>
<path d="M77.4576 41.2127C75.1108 38.35 72.1192 35.9589 69.2236 33.6481C65.1686 30.4091 60.9734 27.0607 58.5794 22.3913L58.87 22.2436C61.2327 26.8512 65.3992 30.1758 69.4275 33.3936C72.3351 35.7159 75.3415 38.1167 77.7115 41.007L77.4576 41.2127Z" fill="#4B506B"/>
<path d="M67.8826 103.532C63.7049 98.288 58.1197 94.2846 52.7178 90.4122C51.5599 89.5827 50.3623 88.725 49.2001 87.8666C42.2427 82.7446 35.6295 77.0344 29.5482 70.8959C28.174 69.5074 26.7885 68.063 25.4485 66.6665C18.9257 59.8633 12.1783 52.8302 3.5355 49.0641L3.66498 48.7659C12.3718 52.5551 19.1379 59.615 25.6848 66.4412C27.0248 67.8377 28.4084 69.2794 29.7827 70.6679C35.8519 76.7949 42.4511 82.4909 49.3984 87.604C50.5587 88.4598 51.7563 89.3174 52.9142 90.147C58.3327 94.0317 63.9364 98.0501 68.1429 103.33L67.8826 103.532Z" fill="#4B506B"/>
<path d="M48.1286 110.3C37.3903 96.6866 23.4079 85.6359 7.68849 78.3398L7.82707 78.0432C23.5922 85.3592 37.6153 96.4452 48.3844 110.097L48.1286 110.3Z" fill="#4B506B"/>
<path d="M74.1657 102.469L41.5148 112.843L8.63476 103.946L8.57781 103.387L0.350015 23.0932L79.513 21.3103L74.1657 102.469ZM41.4773 111.141L72.6126 101.246L77.7745 22.9826L2.15733 24.6853L10.1481 102.663L41.4773 111.141Z" fill="#4B506B"/>
<path d="M64.3395 48.6651L65.0293 39.2542L16.3698 40.1403L19.287 68.6851L52.9651 68.5708L52.0667 81.0373L40.9531 84.832L30.2153 81.6947L29.4543 74.0259L19.6611 73.9427L21.1045 89.3273L41.158 95.1172L61.1666 88.4346L63.2623 58.7106L27.8314 59.2659L26.782 49.5481L64.3395 48.6651Z" fill="#4B506B"/>
<path d="M12.8163 6.25405L12.6711 0.840104L8.00888 0.871867L8.34159 15.8129L12.8796 16.2233L12.8139 11.6277L17.3311 11.5537L17.7945 16.4217L22.7995 16.4532L22.1668 0.748435L17.7452 0.771361L17.6253 6.26716L12.8163 6.25405Z" fill="#4B506B"/>
<path d="M25.0642 0.639524L25.0618 6.01317L28.9626 6.27512L29.5475 15.9549L33.7524 15.9919L33.6653 6.53428L38.0879 5.95583L37.9464 1.21782L25.0642 0.639524Z" fill="#4B506B"/>
<path d="M40.9146 1.13127L41.1866 15.7356L44.9083 15.6679L45.572 8.69782L48.7601 13.4897L52.2031 8.32906L52.7666 15.733L57.2214 15.8824L56.8387 0.409641L52.4019 0.626851L49.1445 6.24019L45.2225 1.23581L40.9146 1.13127Z" fill="#4B506B"/>
<path d="M60.2061 0.597713L60.2035 16.1566L71.5459 15.7297L71.4402 11.2818L65.0839 10.6959L64.3936 0.706715L60.2061 0.597713Z" fill="#4B506B"/>
</g>
<defs>
<clipPath id="clip0">
<rect width="80" height="113" fill="white"/>
</clipPath>
</defs>
</svg>
