<svg width="85" height="121" viewBox="0 0 85 121" fill="none" xmlns="http://www.w3.org/2000/svg">
<g clip-path="url(#clip0)">
<path d="M4.95996 50.0179L4.63981 49.6079C8.39641 46.645 11.0702 42.485 13.6479 38.4673C14.1064 37.7537 14.565 37.0401 15.0266 36.3332C18.0152 31.7784 21.8017 26.8218 27.2279 24.6271L27.4229 25.1079C22.1329 27.2469 18.4077 32.1262 15.4653 36.6147C15.0036 37.3216 14.5469 38.0303 14.0884 38.7439C11.48 42.8003 8.78714 46.9976 4.95996 50.0179Z" fill="#4B506B"/>
<path d="M6.69499 74.8206L6.40324 74.3933C17.8665 66.5052 26.1351 54.8627 34.1318 43.6031C38.832 36.9856 43.6912 30.1436 49.174 24.0768L49.5598 24.4276C44.0975 30.4687 39.2467 37.3027 34.5567 43.9073C26.5329 55.1958 18.2386 66.8787 6.69499 74.8206Z" fill="#4B506B"/>
<path d="M8.28899 92.6218L8.04739 92.1629C17.2863 87.2305 26.8402 82.1305 34.4484 74.6389C37.6842 71.4532 40.5582 67.8201 43.3367 64.3129C44.3174 63.0751 45.2914 61.8404 46.2879 60.6194C56.4955 48.1101 68.4861 37.241 81.9325 28.3193L82.2158 28.7546C68.8129 37.6479 56.8578 48.4801 46.6858 60.9525C45.691 62.1685 44.717 63.4032 43.7381 64.6362C40.9476 68.1612 38.0652 71.8022 34.809 75.0137C27.1484 82.5583 17.5612 87.6739 8.28899 92.6218Z" fill="#4B506B"/>
<path d="M25.9814 113.514L25.5649 113.201C35.2777 100.185 47.237 88.7953 58.8113 77.7802C66.6367 70.3288 74.7303 62.6263 82.063 54.4806L82.4488 54.8315C75.1041 62.9949 67.0021 70.7055 59.17 78.16C47.6143 89.1542 35.6653 100.531 25.9814 113.514Z" fill="#4B506B"/>
<path d="M52.0811 116.995L51.7273 116.617C55.6146 112.976 58.184 108.147 60.6686 103.475C62.3367 100.333 64.0652 97.0861 66.191 94.1886C70.3798 88.4758 76.1012 84.1349 81.1485 80.645L81.4451 81.0741C76.4347 84.5387 70.7536 88.8445 66.6142 94.4977C64.5105 97.3645 62.794 100.594 61.1313 103.721C58.6196 108.422 56.0293 113.293 52.0811 116.995Z" fill="#4B506B"/>
<path d="M72.3242 110.413C72.1793 105.881 74.9509 101.391 79.065 99.4942L79.28 99.9656C75.3505 101.78 72.7076 106.068 72.8435 110.398L72.3242 110.413Z" fill="#4B506B"/>
<path d="M8.31176 110.859L0.102041 23.5423L84.3575 21.948L81.025 108.874L45.5819 120.548L8.31176 110.859ZM2.95318 26.0862L10.7293 108.799L45.5088 117.836L78.5057 106.965L81.6656 24.5952L2.95318 26.0862Z" fill="#4B506B"/>
<path d="M17.1725 40.9967L68.6456 40.9597L68.3692 50.018L48.5773 61.8849L66.9302 61.6487L65.3678 93.0528L43.7085 100.386L22.4393 94.389L20.7191 78.6182L31.2183 77.8547L32.3346 86.3788L41.995 89.8616L55.7141 85.4249L55.8121 72.7301L20.5106 72.6672L18.6703 62.1575L38.825 51.3417L17.9841 52.1177L17.1725 40.9967Z" fill="#4B506B"/>
<path d="M32.0213 5.39116L32.0466 1.28612L17.4461 1.80284L18.6457 16.3487L32.3723 16.3667L31.9158 12.4628L21.8053 12.6591L22.0827 5.78286L32.0213 5.39116Z" fill="#4B506B"/>
<path d="M48.8273 4.68547L48.3991 0.41532L34.8472 0.660335L35.332 10.3278L44.4647 10.3904L44.1877 12.9419L34.8898 12.6808L35.4831 17.1495L48.7785 15.9251L48.577 7.45166L38.4651 6.99948L38.8884 4.50116L48.8273 4.68547Z" fill="#4B506B"/>
<path d="M65.4928 4.41165L65.0646 0.141512L51.5128 0.386461L51.9993 10.049L61.1321 10.1116L60.8532 12.668L51.5553 12.4069L52.1505 16.8707L65.4458 15.6464L65.2425 7.17778L55.1306 6.72566L55.554 4.22734L65.4928 4.41165Z" fill="#4B506B"/>
</g>
<defs>
<clipPath id="clip0">
<rect width="85" height="121" fill="white"/>
</clipPath>
</defs>
</svg>
