<svg width="83" height="117" viewBox="0 0 83 117" fill="none" xmlns="http://www.w3.org/2000/svg">
<path d="M35.3585 44.031C32.3499 40.6827 29.2492 37.2147 25.3941 34.7403C24.1888 33.9768 22.9007 33.2961 21.6494 32.6338C20.7293 32.1554 19.8093 31.6495 18.8892 31.116C15.3587 29.0493 12.2219 26.3741 9.62402 23.2143L9.89085 23.0027C12.4712 26.1325 15.5863 28.7798 19.0916 30.8216C20.0117 31.3551 20.9318 31.8519 21.8518 32.3302C23.1031 32.9925 24.4004 33.6732 25.6149 34.4551C29.5069 36.9572 32.6259 40.4343 35.653 43.801L35.3585 44.031Z" fill="#4B506B"/>
<path d="M77.3138 85.2507C63.7221 74.2631 51.1265 62.0981 39.6735 48.8972L39.9311 48.6672C51.3735 61.8512 63.9533 74.0036 77.5254 84.9839L77.3138 85.2507Z" fill="#4B506B"/>
<path d="M78.5928 60.7175C75.0076 55.7328 70.5949 51.3988 65.5461 47.9036C63.6232 46.5698 61.5806 45.3463 59.6025 44.1689C57.6243 42.9915 55.2965 41.5841 53.2355 40.1307C46.5834 35.4301 41.1733 29.1933 35.9381 23.1681L36.1865 22.9565C41.4033 28.9633 46.8042 35.1909 53.4195 39.8639C55.4713 41.3081 57.6519 42.6235 59.7681 43.8837C61.8842 45.144 63.798 46.2938 65.721 47.6276C70.803 51.14 75.2466 55.4955 78.8596 60.5059L78.5928 60.7175Z" fill="#4B506B"/>
<path d="M80.6999 42.1545C78.1263 39.2 75.2525 36.5211 72.1248 34.1607C67.8924 30.7388 63.5221 27.1973 61.0839 22.2851L61.3875 22.1379C63.8349 26.9765 68.1777 30.4996 72.3732 33.9032C75.5259 36.2709 78.4188 38.9658 81.0035 41.9429L80.6999 42.1545Z" fill="#4B506B"/>
<path d="M70.2293 107.401C65.8865 101.882 60.0625 97.6322 54.4224 93.5387C53.2171 92.6188 51.9658 91.699 50.7421 90.8435C43.4614 85.4029 36.6139 79.4057 30.2612 72.9059C28.8351 71.4433 27.3906 69.9163 25.9921 68.4445C19.2111 61.2695 12.1909 53.8461 3.15576 49.8355L3.29377 49.5227C12.3933 53.561 19.4319 61.012 26.2497 68.2146C27.639 69.6864 29.0835 71.2042 30.5096 72.6668C36.8372 79.1505 43.6569 85.1353 50.9077 90.5675C52.1222 91.4874 53.3735 92.4073 54.588 93.2536C60.2373 97.3654 66.0797 101.624 70.4501 107.19L70.2293 107.401Z" fill="#4B506B"/>
<path d="M49.4355 114.346C38.2182 99.9452 23.7832 88.3707 7.28687 80.5503L7.43408 80.2375C23.9791 88.0836 38.4578 99.6923 49.7115 114.135L49.4355 114.346Z" fill="#4B506B"/>
<path d="M76.7895 106.325L42.4891 116.959L8.08744 107.392L8.03224 106.803L0 22.5887L83 21.3101L76.7895 106.325ZM42.4615 115.174L75.1702 105.056L81.1691 23.067L1.88614 24.2905L9.67918 106.077L42.4615 115.174Z" fill="#4B506B"/>
<path d="M32.9497 16.0735C31.7305 16.0735 30.6229 15.8803 29.6268 15.4937C28.6455 15.0923 27.8352 14.5124 27.1959 13.7542L30.0282 10.409C30.4445 10.9293 30.8534 11.3159 31.2548 11.5686C31.6562 11.8214 32.0725 11.9478 32.5037 11.9478C33.0538 11.9478 33.4701 11.7842 33.7525 11.4571C34.0499 11.1301 34.7125 9.7771 34.7125 9.13779L34.1986 4.07538H28.8908L29.6268 0.105704L39.3948 0.105725V9.69533C39.3948 11.8214 38.8447 13.4197 37.7445 14.4901C36.6592 15.5457 35.0609 16.0735 32.9497 16.0735Z" fill="#4B506B"/>
<path d="M47.6289 16.0735C46.3354 16.0735 44.964 15.7762 43.73 15.4937C42.5108 15.1963 41.6149 14.9585 40.827 14.4678L42.8573 11.2118C43.6007 11.643 44.0978 11.4125 45.0196 11.6802C45.9414 11.9329 46.826 12.0593 47.6735 12.0593C48.402 12.0593 48.9224 11.9924 49.2346 11.8586C49.5468 11.7099 49.7029 11.4943 49.7029 11.2118C49.7029 10.8847 49.4948 10.6394 49.0785 10.4759C48.6771 10.3123 48.008 10.1339 47.0714 9.94065C45.8671 9.68789 44.8635 9.42028 44.0607 9.13779C43.2578 8.84044 42.559 8.36468 41.9643 7.7105C41.3696 7.04146 41.0723 6.14197 41.0723 5.01203C41.0723 4.03077 41.3473 3.13872 41.8974 2.33587C42.4475 1.53302 43.2652 0.901142 44.3506 0.440246C45.4508 -0.0206493 46.7368 0.105704 48.2979 0.105704C49.3684 0.105704 50.4612 -0.132156 51.487 0.105725C52.5278 0.328739 53.4421 0.66326 54.2301 1.10929L52.6467 4.92283C51.1153 4.14971 49.6657 3.76316 48.2979 3.76316C46.945 3.76316 46.2685 4.09024 46.2685 4.74442C46.2685 5.05664 46.4692 5.29452 46.8706 5.45806C47.2721 5.60674 47.9337 5.77028 48.8555 5.94869C50.0449 6.17171 51.0484 6.43189 51.8662 6.72924C52.6839 7.01173 53.3901 7.48006 53.9848 8.13423C54.5944 8.78841 54.8991 9.68046 54.8991 10.8104C54.8991 11.7917 54.2672 12.6837 53.7171 13.4866C53.167 14.2745 52.6987 14.9064 51.5985 15.3822C50.5132 15.8431 49.19 16.0735 47.6289 16.0735Z" fill="#4B506B"/>
<path d="M63.8985 39.9574H23.659L25.8891 49.9445H51.6812V77.385L45.8634 84.0754H33.5492L25.8891 75.3488L19.8774 89.6023L33.5492 97.1653H49.1602L59.0503 91.4445L63.8985 81.3604V39.9574Z" fill="#4B506B"/>
</svg>
