<svg width="131" height="59" viewBox="0 0 131 59" fill="none" xmlns="http://www.w3.org/2000/svg">
<path d="M42.7977 24.5363C45.0771 24.4767 46.5046 24.7714 47.2865 25.5171C48.0642 26.1608 48.2068 27.5108 47.9004 29.179C47.6014 31.0257 46.9062 32.3721 45.6972 33.1699C44.6026 33.9393 42.8316 34.4198 40.4657 34.4817L36.8879 34.5753L38.6366 24.4919C38.6429 24.645 42.7977 24.5363 42.7977 24.5363ZM29.2874 44.9395L35.1446 44.7862L36.2087 38.3987L41.3156 38.2651C43.595 38.2054 45.2611 37.9831 46.7734 37.5348C48.1703 37.0896 49.469 36.366 50.553 35.3416C51.4745 34.5768 52.269 33.5343 52.8946 32.5985C53.4336 31.6649 53.8466 30.4792 54.0042 29.4024C54.4639 26.5553 53.999 24.3965 52.4043 22.8547C50.8384 21.3121 48.3542 20.6109 44.9495 20.6999L33.6103 20.9966L29.2874 44.9395Z" fill="#4B506B"/>
<path d="M59.2882 13.9916L65.1454 13.8384L64.0813 20.2259L69.2748 20.09C72.4774 20.0062 74.8645 20.4546 76.0341 21.4967C77.316 22.4593 77.8474 24.1311 77.2768 26.3936L75.2841 37.556L69.3404 37.7116L71.2709 27.1382C71.5108 25.957 71.3894 25.1173 70.882 24.722C70.4034 24.3258 69.4407 24.0956 67.9404 24.1349L63.3239 24.2556L60.8577 37.9335L55.0006 38.0867L59.2882 13.9916Z" fill="#4B506B"/>
<path d="M90.0884 23.2991C92.3678 23.2394 93.7953 23.5341 94.5772 24.2799C95.3548 24.9236 95.4974 26.2735 95.191 27.9417C94.892 29.7885 94.1968 31.1348 92.9878 31.9327C91.8932 32.702 90.1223 33.1825 87.7564 33.2444L84.1786 33.338L85.9273 23.2547C86.049 23.4047 90.0884 23.2991 90.0884 23.2991ZM76.6648 43.6999L82.5219 43.5467L83.586 37.1591L88.6929 37.0255C90.9723 36.9659 92.6383 36.7435 94.1506 36.2953C95.5475 35.8501 96.8462 35.1265 97.9302 34.102C98.8517 33.3372 99.6462 32.2948 100.272 31.359C100.811 30.4254 101.224 29.2397 101.381 28.1629C101.841 25.3158 101.376 23.157 99.7815 21.6152C98.2156 20.0726 95.7314 19.3714 92.3268 19.4604L80.9876 19.7571L76.6648 43.6999Z" fill="#4B506B"/>
<ellipse rx="64.1276" ry="27.7956" transform="matrix(0.999658 -0.0261688 0.0413654 0.999144 65.2554 29.45)" stroke="#4B506B"/>
</svg>
