<svg width="27" height="37" viewBox="0 0 27 37" fill="none" xmlns="http://www.w3.org/2000/svg">
<path d="M2.50244 4.95623V0H4.17088V1.6439H5.6921V0H7.36053V4.95623H5.6921V3.31233H4.17088V4.95623H2.50244Z" fill="black"/>
<path d="M8.09661 1.6439V0H12.6848V1.6439H11.2127V4.95623H9.56875V1.6439H8.09661Z" fill="black"/>
<path d="M13.4454 4.95623V0H15.212L16.218 1.74204L17.3711 0H19.0641V4.95623H17.3711V2.50265L16.218 4.29377L15.0157 2.50265V4.95623H13.4454Z" fill="black"/>
<path d="M19.8738 4.95623V0H21.5422V3.31233H23.8731V4.95623H19.8738Z" fill="black"/>
<path d="M26.2533 7.31177H0L2.42904 34.0067L13.0285 37.0001L23.7997 34.0067L26.2533 7.31177Z" fill="#808080"/>
<path d="M4.95605 12.7341H13.1756V16.071H8.53828L8.85725 19.4815H13.1756V22.7202H5.86388L4.95605 12.7341Z" fill="#EBEBEB"/>
<path d="M9.2502 24.3643H6.06055L6.50219 29.3941L13.1759 31.3324V27.8974L9.5937 26.8914L9.2502 24.3643Z" fill="#EBEBEB"/>
<path d="M13.1758 34.6693V9.49561H23.8979L21.8124 32.2648L13.1758 34.6693Z" fill="#A8A8A8"/>
<path d="M21.1254 16.071L21.3707 12.7341H13.1758V16.071H21.1254Z" fill="white"/>
<path d="M13.1758 22.7202V19.4815H20.7819L19.825 29.4921L13.1758 31.3323V27.8973L16.8562 26.9894L17.1997 22.7202H13.1758Z" fill="white"/>
</svg>
