<svg width="27" height="37" viewBox="0 0 27 37" fill="none" xmlns="http://www.w3.org/2000/svg">
<path d="M5.27344 5.11387V0.000244141H10.2764V1.56137H6.80998V3.88463H10.2764V5.11387H5.27344Z" fill="black"/>
<path d="M10.9277 3.08538V0H15.9307V1.46279H12.2553V2.0897H15.9307V5.11362H10.9277V3.88439H14.4065V3.08538H10.9277Z" fill="black"/>
<path d="M16.5947 3.08538V0H21.5977V1.46279H17.9223V2.0897H21.5977V5.11362H16.5947V3.88439H20.0735V3.08538H16.5947Z" fill="black"/>
<path d="M26.8588 6.25684H0L2.27409 33.8901L13.3372 37L24.5233 33.8901L26.8588 6.25684Z" fill="#808080"/>
<path d="M24.5234 8.40796H13.3374V34.6153L22.4952 32.2183L24.5234 8.40796Z" fill="#A8A8A8"/>
<path d="M4.04395 11.7146H13.3493V14.9229V21.905H5.10109L4.83066 18.5369L13.3493 14.9229H4.44959L4.04395 11.7146Z" fill="#F6F6F6"/>
<path d="M9.04694 26.7482L13.3493 27.6209V31.1734L5.83863 29.182L5.34694 24.0315H8.71504L9.04694 26.7482Z" fill="#F6F6F6"/>
<path d="M22.4582 11.6899H13.3496V21.9541H17.8117L17.4307 26.4162L13.3496 27.6208V31.1733L20.9217 29.182L21.8068 18.5368H14.5543L22.1264 15.2178L22.4582 11.6899Z" fill="white"/>
</svg>
