<svg width="27" height="37" viewBox="0 0 27 37" fill="none" xmlns="http://www.w3.org/2000/svg">
<path d="M13 3.08538V0H18.003V1.46279H14.3276V2.0897H18.003V5.11362H13V3.88439H16.4787V3.08538H13Z" fill="black"/>
<path d="M26.8588 6H0L2.27409 33.6332L13.3372 36.7432L24.5233 33.6332L26.8588 6Z" fill="#808080"/>
<path d="M24.5234 8.15112H13.3374V34.3584L22.4952 31.9614L24.5234 8.15112Z" fill="#A8A8A8"/>
<path d="M20.5227 11.6406H7.43278L8.15824 14.8001H16.5484V23.4809L14.6559 25.5974H10.6501L8.15824 22.8367L6.20264 27.3458L10.6501 29.7384H15.7283L18.9456 27.9286L20.5227 24.7385V11.6406Z" fill="white"/>
<path d="M8.99993 1V0H11.9999V3.33333L12 4V5H10.4999H9L8 4L8.5 3L8.99993 3.5L9.5 3.88889H10.4999L10.5 3L10.4999 1H8.99993Z" fill="black"/>
</svg>
