<svg width="9" height="10" viewBox="0 0 9 10" fill="none" xmlns="http://www.w3.org/2000/svg">
<g clip-path="url(#clip0)">
<path d="M5.59147 8.13731L8.5941 5.13449C8.66329 5.0653 8.66329 4.95315 8.5941 4.88396L5.59147 1.88124C5.52228 1.81205 5.41013 1.81205 5.34094 1.88124L4.54089 2.6812C4.50767 2.71442 4.48898 2.75942 4.48898 2.80646C4.48898 2.85341 4.50767 2.8985 4.54089 2.93173L5.82827 4.21928L0.204814 4.21928C0.107012 4.21928 0.0276355 4.29865 0.0276355 4.39646L0.0276354 5.62209C0.0276354 5.71989 0.107012 5.79926 0.204814 5.79926L5.82818 5.79926L4.5408 7.08664C4.47436 7.15308 4.47436 7.27073 4.5408 7.33717L5.34085 8.13722C5.37407 8.17044 5.41916 8.18913 5.46611 8.18913C5.51307 8.18922 5.55825 8.17053 5.59147 8.13731Z" fill="white"/>
</g>
<defs>
<clipPath id="clip0">
<rect width="8.61839" height="8.61838" fill="white" transform="translate(8.646 0.699219) rotate(90)"/>
</clipPath>
</defs>
</svg>
