<svg width="13" height="13" viewBox="0 0 13 13" fill="none" xmlns="http://www.w3.org/2000/svg">
<g clip-path="url(#clip0)">
<path d="M8.39254 11.2184L12.9217 6.68892C13.0261 6.58456 13.0261 6.41539 12.9217 6.31102L8.39254 1.7817C8.28818 1.67734 8.119 1.67734 8.01464 1.7817L6.80785 2.98836C6.75774 3.03847 6.72954 3.10636 6.72954 3.17731C6.72954 3.24814 6.75774 3.31615 6.80785 3.36626L8.74973 5.30841L0.267292 5.30841C0.119767 5.30841 3.60768e-05 5.42814 3.60704e-05 5.57567L3.59896e-05 7.42441C3.59831e-05 7.57194 0.119767 7.69167 0.267292 7.69167L8.74959 7.69167L6.80771 9.63355C6.70749 9.73377 6.70749 9.91123 6.80771 10.0115L8.01451 11.2182C8.06462 11.2684 8.13263 11.2966 8.20346 11.2966C8.27428 11.2967 8.34243 11.2685 8.39254 11.2184Z" fill="white"/>
</g>
<defs>
<clipPath id="clip0">
<rect width="13" height="13" fill="white" transform="translate(13) rotate(90)"/>
</clipPath>
</defs>
</svg>
