<svg width="154" height="46" viewBox="0 0 154 46" fill="none" xmlns="http://www.w3.org/2000/svg">
<path d="M31.28 23L31.256 12.92L26.312 21.224H24.56L19.64 13.136V23H15.992V6.2H19.208L25.496 16.64L31.688 6.2H34.88L34.928 23H31.28ZM41.0739 6.2H44.9619V23H41.0739V6.2ZM54.5889 9.368H49.2129V6.2H63.8529V9.368H58.4769V23H54.5889V9.368ZM71.8192 9.368H66.4432V6.2H81.0832V9.368H75.7072V23H71.8192V9.368ZM98.3431 19.88V23H85.3351V6.2H98.0311V9.32H89.1991V12.968H96.9991V15.992H89.1991V19.88H98.3431ZM111.686 23.288C109.942 23.288 108.366 22.912 106.958 22.16C105.566 21.408 104.47 20.376 103.67 19.064C102.886 17.736 102.494 16.248 102.494 14.6C102.494 12.952 102.886 11.472 103.67 10.16C104.47 8.832 105.566 7.792 106.958 7.04C108.366 6.288 109.942 5.912 111.686 5.912C113.43 5.912 114.998 6.288 116.39 7.04C117.782 7.792 118.878 8.832 119.678 10.16C120.478 11.472 120.878 12.952 120.878 14.6C120.878 16.248 120.478 17.736 119.678 19.064C118.878 20.376 117.782 21.408 116.39 22.16C114.998 22.912 113.43 23.288 111.686 23.288ZM111.686 19.976C112.678 19.976 113.574 19.752 114.374 19.304C115.174 18.84 115.798 18.2 116.246 17.384C116.71 16.568 116.942 15.64 116.942 14.6C116.942 13.56 116.71 12.632 116.246 11.816C115.798 11 115.174 10.368 114.374 9.92C113.574 9.456 112.678 9.224 111.686 9.224C110.694 9.224 109.798 9.456 108.998 9.92C108.198 10.368 107.566 11 107.102 11.816C106.654 12.632 106.43 13.56 106.43 14.6C106.43 15.64 106.654 16.568 107.102 17.384C107.566 18.2 108.198 18.84 108.998 19.304C109.798 19.752 110.694 19.976 111.686 19.976ZM131.48 23.288C130.152 23.288 128.864 23.112 127.616 22.76C126.384 22.392 125.392 21.92 124.64 21.344L125.96 18.416C126.68 18.944 127.536 19.368 128.528 19.688C129.52 20.008 130.512 20.168 131.504 20.168C132.608 20.168 133.424 20.008 133.952 19.688C134.48 19.352 134.744 18.912 134.744 18.368C134.744 17.968 134.584 17.64 134.264 17.384C133.96 17.112 133.56 16.896 133.064 16.736C132.584 16.576 131.928 16.4 131.096 16.208C129.816 15.904 128.768 15.6 127.952 15.296C127.136 14.992 126.432 14.504 125.84 13.832C125.264 13.16 124.976 12.264 124.976 11.144C124.976 10.168 125.24 9.288 125.768 8.504C126.296 7.704 127.088 7.072 128.144 6.608C129.216 6.144 130.52 5.912 132.056 5.912C133.128 5.912 134.176 6.04 135.2 6.296C136.224 6.552 137.12 6.92 137.888 7.4L136.688 10.352C135.136 9.472 133.584 9.032 132.032 9.032C130.944 9.032 130.136 9.208 129.608 9.56C129.096 9.912 128.84 10.376 128.84 10.952C128.84 11.528 129.136 11.96 129.728 12.248C130.336 12.52 131.256 12.792 132.488 13.064C133.768 13.368 134.816 13.672 135.632 13.976C136.448 14.28 137.144 14.76 137.72 15.416C138.312 16.072 138.608 16.96 138.608 18.08C138.608 19.04 138.336 19.92 137.792 20.72C137.264 21.504 136.464 22.128 135.392 22.592C134.32 23.056 133.016 23.288 131.48 23.288Z" fill="#4B506B"/>
<path d="M5.018 33.9C5.824 33.9 6.52167 34.0343 7.111 34.303C7.709 34.5717 8.16833 34.953 8.489 35.447C8.80967 35.941 8.97 36.526 8.97 37.202C8.97 37.8693 8.80967 38.4543 8.489 38.957C8.16833 39.451 7.709 39.8323 7.111 40.101C6.52167 40.361 5.824 40.491 5.018 40.491H3.185V43H1.079V33.9H5.018ZM4.901 38.775C5.53367 38.775 6.01467 38.6407 6.344 38.372C6.67333 38.0947 6.838 37.7047 6.838 37.202C6.838 36.6907 6.67333 36.3007 6.344 36.032C6.01467 35.7547 5.53367 35.616 4.901 35.616H3.185V38.775H4.901ZM24.1725 43.156C23.2278 43.156 22.3742 42.9523 21.6115 42.545C20.8575 42.1377 20.2638 41.5787 19.8305 40.868C19.4058 40.1487 19.1935 39.3427 19.1935 38.45C19.1935 37.5573 19.4058 36.7557 19.8305 36.045C20.2638 35.3257 20.8575 34.7623 21.6115 34.355C22.3742 33.9477 23.2278 33.744 24.1725 33.744C25.1172 33.744 25.9665 33.9477 26.7205 34.355C27.4745 34.7623 28.0682 35.3257 28.5015 36.045C28.9348 36.7557 29.1515 37.5573 29.1515 38.45C29.1515 39.3427 28.9348 40.1487 28.5015 40.868C28.0682 41.5787 27.4745 42.1377 26.7205 42.545C25.9665 42.9523 25.1172 43.156 24.1725 43.156ZM24.1725 41.362C24.7098 41.362 25.1952 41.2407 25.6285 40.998C26.0618 40.7467 26.3998 40.4 26.6425 39.958C26.8938 39.516 27.0195 39.0133 27.0195 38.45C27.0195 37.8867 26.8938 37.384 26.6425 36.942C26.3998 36.5 26.0618 36.1577 25.6285 35.915C25.1952 35.6637 24.7098 35.538 24.1725 35.538C23.6352 35.538 23.1498 35.6637 22.7165 35.915C22.2832 36.1577 21.9408 36.5 21.6895 36.942C21.4468 37.384 21.3255 37.8867 21.3255 38.45C21.3255 39.0133 21.4468 39.516 21.6895 39.958C21.9408 40.4 22.2832 40.7467 22.7165 40.998C23.1498 41.2407 23.6352 41.362 24.1725 41.362ZM45.6972 43L43.9422 40.465H43.8382H42.0052V43H39.8992V33.9H43.8382C44.6442 33.9 45.3419 34.0343 45.9312 34.303C46.5292 34.5717 46.9886 34.953 47.3092 35.447C47.6299 35.941 47.7902 36.526 47.7902 37.202C47.7902 37.878 47.6256 38.463 47.2962 38.957C46.9756 39.4423 46.5162 39.815 45.9182 40.075L47.9592 43H45.6972ZM45.6582 37.202C45.6582 36.6907 45.4936 36.3007 45.1642 36.032C44.8349 35.7547 44.3539 35.616 43.7212 35.616H42.0052V38.788H43.7212C44.3539 38.788 44.8349 38.6493 45.1642 38.372C45.4936 38.0947 45.6582 37.7047 45.6582 37.202ZM60.3819 35.616H57.4699V33.9H65.3999V35.616H62.4879V43H60.3819V35.616ZM77.804 35.59V37.995H82.016V39.685H77.804V43H75.698V33.9H82.575V35.59H77.804ZM97.4838 43.156C96.5392 43.156 95.6855 42.9523 94.9228 42.545C94.1688 42.1377 93.5752 41.5787 93.1418 40.868C92.7172 40.1487 92.5048 39.3427 92.5048 38.45C92.5048 37.5573 92.7172 36.7557 93.1418 36.045C93.5752 35.3257 94.1688 34.7623 94.9228 34.355C95.6855 33.9477 96.5392 33.744 97.4838 33.744C98.4285 33.744 99.2778 33.9477 100.032 34.355C100.786 34.7623 101.38 35.3257 101.813 36.045C102.246 36.7557 102.463 37.5573 102.463 38.45C102.463 39.3427 102.246 40.1487 101.813 40.868C101.38 41.5787 100.786 42.1377 100.032 42.545C99.2778 42.9523 98.4285 43.156 97.4838 43.156ZM97.4838 41.362C98.0212 41.362 98.5065 41.2407 98.9398 40.998C99.3732 40.7467 99.7112 40.4 99.9538 39.958C100.205 39.516 100.331 39.0133 100.331 38.45C100.331 37.8867 100.205 37.384 99.9538 36.942C99.7112 36.5 99.3732 36.1577 98.9398 35.915C98.5065 35.6637 98.0212 35.538 97.4838 35.538C96.9465 35.538 96.4612 35.6637 96.0278 35.915C95.5945 36.1577 95.2522 36.5 95.0008 36.942C94.7582 37.384 94.6368 37.8867 94.6368 38.45C94.6368 39.0133 94.7582 39.516 95.0008 39.958C95.2522 40.4 95.5945 40.7467 96.0278 40.998C96.4612 41.2407 96.9465 41.362 97.4838 41.362ZM113.211 33.9H115.317V41.284H119.88V43H113.211V33.9ZM130.221 33.9H132.327V43H130.221V33.9ZM148.059 43.156C147.114 43.156 146.261 42.9523 145.498 42.545C144.744 42.1377 144.15 41.5787 143.717 40.868C143.292 40.1487 143.08 39.3427 143.08 38.45C143.08 37.5573 143.292 36.7557 143.717 36.045C144.15 35.3257 144.744 34.7623 145.498 34.355C146.261 33.9477 147.114 33.744 148.059 33.744C149.004 33.744 149.853 33.9477 150.607 34.355C151.361 34.7623 151.955 35.3257 152.388 36.045C152.821 36.7557 153.038 37.5573 153.038 38.45C153.038 39.3427 152.821 40.1487 152.388 40.868C151.955 41.5787 151.361 42.1377 150.607 42.545C149.853 42.9523 149.004 43.156 148.059 43.156ZM148.059 41.362C148.596 41.362 149.082 41.2407 149.515 40.998C149.948 40.7467 150.286 40.4 150.529 39.958C150.78 39.516 150.906 39.0133 150.906 38.45C150.906 37.8867 150.78 37.384 150.529 36.942C150.286 36.5 149.948 36.1577 149.515 35.915C149.082 35.6637 148.596 35.538 148.059 35.538C147.522 35.538 147.036 35.6637 146.603 35.915C146.17 36.1577 145.827 36.5 145.576 36.942C145.333 37.384 145.212 37.8867 145.212 38.45C145.212 39.0133 145.333 39.516 145.576 39.958C145.827 40.4 146.17 40.7467 146.603 40.998C147.036 41.2407 147.522 41.362 148.059 41.362Z" fill="#4B506B"/>
</svg>
