<svg width="154" height="46" viewBox="0 0 154 46" fill="none" xmlns="http://www.w3.org/2000/svg">
<path d="M42.696 23L39.456 18.32H39.264H35.88V23H31.992V6.2H39.264C40.752 6.2 42.04 6.448 43.128 6.944C44.232 7.44 45.08 8.144 45.672 9.056C46.264 9.968 46.56 11.048 46.56 12.296C46.56 13.544 46.256 14.624 45.648 15.536C45.056 16.432 44.208 17.12 43.104 17.6L46.872 23H42.696ZM42.624 12.296C42.624 11.352 42.32 10.632 41.712 10.136C41.104 9.624 40.216 9.368 39.048 9.368H35.88V15.224H39.048C40.216 15.224 41.104 14.968 41.712 14.456C42.32 13.944 42.624 13.224 42.624 12.296ZM51.8004 6.2H55.6884V23H51.8004V6.2ZM69.9714 23.288C68.2274 23.288 66.6514 22.912 65.2434 22.16C63.8514 21.408 62.7554 20.376 61.9554 19.064C61.1714 17.736 60.7794 16.248 60.7794 14.6C60.7794 12.952 61.1714 11.472 61.9554 10.16C62.7554 8.832 63.8514 7.792 65.2434 7.04C66.6514 6.288 68.2274 5.912 69.9714 5.912C71.7154 5.912 73.2834 6.288 74.6754 7.04C76.0674 7.792 77.1634 8.832 77.9634 10.16C78.7634 11.472 79.1634 12.952 79.1634 14.6C79.1634 16.248 78.7634 17.736 77.9634 19.064C77.1634 20.376 76.0674 21.408 74.6754 22.16C73.2834 22.912 71.7154 23.288 69.9714 23.288ZM69.9714 19.976C70.9634 19.976 71.8594 19.752 72.6594 19.304C73.4594 18.84 74.0834 18.2 74.5314 17.384C74.9954 16.568 75.2274 15.64 75.2274 14.6C75.2274 13.56 74.9954 12.632 74.5314 11.816C74.0834 11 73.4594 10.368 72.6594 9.92C71.8594 9.456 70.9634 9.224 69.9714 9.224C68.9794 9.224 68.0834 9.456 67.2834 9.92C66.4834 10.368 65.8514 11 65.3874 11.816C64.9394 12.632 64.7154 13.56 64.7154 14.6C64.7154 15.64 64.9394 16.568 65.3874 17.384C65.8514 18.2 66.4834 18.84 67.2834 19.304C68.0834 19.752 68.9794 19.976 69.9714 19.976ZM99.6534 6.2V23H96.4614L88.0854 12.8V23H84.2454V6.2H87.4614L95.8134 16.4V6.2H99.6534ZM105.788 6.2H113.42C115.244 6.2 116.852 6.552 118.244 7.256C119.652 7.944 120.74 8.92 121.508 10.184C122.292 11.448 122.684 12.92 122.684 14.6C122.684 16.28 122.292 17.752 121.508 19.016C120.74 20.28 119.652 21.264 118.244 21.968C116.852 22.656 115.244 23 113.42 23H105.788V6.2ZM113.228 19.808C114.908 19.808 116.244 19.344 117.236 18.416C118.244 17.472 118.748 16.2 118.748 14.6C118.748 13 118.244 11.736 117.236 10.808C116.244 9.864 114.908 9.392 113.228 9.392H109.676V19.808H113.228Z" fill="#4B506B"/>
<path d="M5.018 33.9C5.824 33.9 6.52167 34.0343 7.111 34.303C7.709 34.5717 8.16833 34.953 8.489 35.447C8.80967 35.941 8.97 36.526 8.97 37.202C8.97 37.8693 8.80967 38.4543 8.489 38.957C8.16833 39.451 7.709 39.8323 7.111 40.101C6.52167 40.361 5.824 40.491 5.018 40.491H3.185V43H1.079V33.9H5.018ZM4.901 38.775C5.53367 38.775 6.01467 38.6407 6.344 38.372C6.67333 38.0947 6.838 37.7047 6.838 37.202C6.838 36.6907 6.67333 36.3007 6.344 36.032C6.01467 35.7547 5.53367 35.616 4.901 35.616H3.185V38.775H4.901ZM24.1725 43.156C23.2278 43.156 22.3742 42.9523 21.6115 42.545C20.8575 42.1377 20.2638 41.5787 19.8305 40.868C19.4058 40.1487 19.1935 39.3427 19.1935 38.45C19.1935 37.5573 19.4058 36.7557 19.8305 36.045C20.2638 35.3257 20.8575 34.7623 21.6115 34.355C22.3742 33.9477 23.2278 33.744 24.1725 33.744C25.1172 33.744 25.9665 33.9477 26.7205 34.355C27.4745 34.7623 28.0682 35.3257 28.5015 36.045C28.9348 36.7557 29.1515 37.5573 29.1515 38.45C29.1515 39.3427 28.9348 40.1487 28.5015 40.868C28.0682 41.5787 27.4745 42.1377 26.7205 42.545C25.9665 42.9523 25.1172 43.156 24.1725 43.156ZM24.1725 41.362C24.7098 41.362 25.1952 41.2407 25.6285 40.998C26.0618 40.7467 26.3998 40.4 26.6425 39.958C26.8938 39.516 27.0195 39.0133 27.0195 38.45C27.0195 37.8867 26.8938 37.384 26.6425 36.942C26.3998 36.5 26.0618 36.1577 25.6285 35.915C25.1952 35.6637 24.7098 35.538 24.1725 35.538C23.6352 35.538 23.1498 35.6637 22.7165 35.915C22.2832 36.1577 21.9408 36.5 21.6895 36.942C21.4468 37.384 21.3255 37.8867 21.3255 38.45C21.3255 39.0133 21.4468 39.516 21.6895 39.958C21.9408 40.4 22.2832 40.7467 22.7165 40.998C23.1498 41.2407 23.6352 41.362 24.1725 41.362ZM45.6972 43L43.9422 40.465H43.8382H42.0052V43H39.8992V33.9H43.8382C44.6442 33.9 45.3419 34.0343 45.9312 34.303C46.5292 34.5717 46.9886 34.953 47.3092 35.447C47.6299 35.941 47.7902 36.526 47.7902 37.202C47.7902 37.878 47.6256 38.463 47.2962 38.957C46.9756 39.4423 46.5162 39.815 45.9182 40.075L47.9592 43H45.6972ZM45.6582 37.202C45.6582 36.6907 45.4936 36.3007 45.1642 36.032C44.8349 35.7547 44.3539 35.616 43.7212 35.616H42.0052V38.788H43.7212C44.3539 38.788 44.8349 38.6493 45.1642 38.372C45.4936 38.0947 45.6582 37.7047 45.6582 37.202ZM60.3819 35.616H57.4699V33.9H65.3999V35.616H62.4879V43H60.3819V35.616ZM77.804 35.59V37.995H82.016V39.685H77.804V43H75.698V33.9H82.575V35.59H77.804ZM97.4838 43.156C96.5392 43.156 95.6855 42.9523 94.9228 42.545C94.1688 42.1377 93.5752 41.5787 93.1418 40.868C92.7172 40.1487 92.5048 39.3427 92.5048 38.45C92.5048 37.5573 92.7172 36.7557 93.1418 36.045C93.5752 35.3257 94.1688 34.7623 94.9228 34.355C95.6855 33.9477 96.5392 33.744 97.4838 33.744C98.4285 33.744 99.2778 33.9477 100.032 34.355C100.786 34.7623 101.38 35.3257 101.813 36.045C102.246 36.7557 102.463 37.5573 102.463 38.45C102.463 39.3427 102.246 40.1487 101.813 40.868C101.38 41.5787 100.786 42.1377 100.032 42.545C99.2778 42.9523 98.4285 43.156 97.4838 43.156ZM97.4838 41.362C98.0212 41.362 98.5065 41.2407 98.9398 40.998C99.3732 40.7467 99.7112 40.4 99.9538 39.958C100.205 39.516 100.331 39.0133 100.331 38.45C100.331 37.8867 100.205 37.384 99.9538 36.942C99.7112 36.5 99.3732 36.1577 98.9398 35.915C98.5065 35.6637 98.0212 35.538 97.4838 35.538C96.9465 35.538 96.4612 35.6637 96.0278 35.915C95.5945 36.1577 95.2522 36.5 95.0008 36.942C94.7582 37.384 94.6368 37.8867 94.6368 38.45C94.6368 39.0133 94.7582 39.516 95.0008 39.958C95.2522 40.4 95.5945 40.7467 96.0278 40.998C96.4612 41.2407 96.9465 41.362 97.4838 41.362ZM113.211 33.9H115.317V41.284H119.88V43H113.211V33.9ZM130.221 33.9H132.327V43H130.221V33.9ZM148.059 43.156C147.114 43.156 146.261 42.9523 145.498 42.545C144.744 42.1377 144.15 41.5787 143.717 40.868C143.292 40.1487 143.08 39.3427 143.08 38.45C143.08 37.5573 143.292 36.7557 143.717 36.045C144.15 35.3257 144.744 34.7623 145.498 34.355C146.261 33.9477 147.114 33.744 148.059 33.744C149.004 33.744 149.853 33.9477 150.607 34.355C151.361 34.7623 151.955 35.3257 152.388 36.045C152.821 36.7557 153.038 37.5573 153.038 38.45C153.038 39.3427 152.821 40.1487 152.388 40.868C151.955 41.5787 151.361 42.1377 150.607 42.545C149.853 42.9523 149.004 43.156 148.059 43.156ZM148.059 41.362C148.596 41.362 149.082 41.2407 149.515 40.998C149.948 40.7467 150.286 40.4 150.529 39.958C150.78 39.516 150.906 39.0133 150.906 38.45C150.906 37.8867 150.78 37.384 150.529 36.942C150.286 36.5 149.948 36.1577 149.515 35.915C149.082 35.6637 148.596 35.538 148.059 35.538C147.522 35.538 147.036 35.6637 146.603 35.915C146.17 36.1577 145.827 36.5 145.576 36.942C145.333 37.384 145.212 37.8867 145.212 38.45C145.212 39.0133 145.333 39.516 145.576 39.958C145.827 40.4 146.17 40.7467 146.603 40.998C147.036 41.2407 147.522 41.362 148.059 41.362Z" fill="#4B506B"/>
</svg>
