<svg width="25" height="21" viewBox="0 0 25 21" fill="none" xmlns="http://www.w3.org/2000/svg">
<path d="M23.175 0.233091L0.972918 8.70104C0.972918 8.70104 -0.076765 9.0507 0.00448463 9.6956C0.0879218 10.3417 0.944481 10.6372 0.944481 10.6372L6.53102 12.4648C6.53102 12.4648 8.21726 17.8405 8.54913 18.8634C8.88101 19.8835 9.14726 19.9075 9.14726 19.9075C9.45632 20.0381 9.73725 19.8302 9.73725 19.8302L13.3466 16.6318L18.9719 20.8248C20.4935 21.47 21.0472 20.1258 21.0472 20.1258L25 0.744834C25 -0.54612 23.175 0.233091 23.175 0.233091ZM19.2444 18.567L13.2263 14.0825L11.3588 15.7369L11.7694 12.2171L19.7913 5.25L8.85663 11.199L4.00634 9.61255L22.5116 2.55412L19.2444 18.567Z" fill="#4B506B"/>
</svg>
