<svg width="27" height="14" viewBox="0 0 27 14" fill="none" xmlns="http://www.w3.org/2000/svg">
<path d="M26.8569 12.3357C26.8242 12.2733 26.7937 12.2214 26.7654 12.1799C26.2969 11.4318 25.4017 10.5136 24.0803 9.42497L24.0524 9.40004L24.0384 9.38781L24.0243 9.37528L24.0101 9.37528C23.4104 8.86836 23.0306 8.52752 22.8716 8.35302C22.5806 8.0206 22.5154 7.68412 22.6745 7.34319C22.7868 7.08561 23.2089 6.54162 23.9397 5.71049C24.3241 5.27002 24.6285 4.91699 24.8533 4.65103C26.4748 2.73965 27.1778 1.51826 26.9621 0.986363L26.8783 0.862067C26.8221 0.787236 26.6768 0.718779 26.4428 0.656347C26.2082 0.594047 25.9084 0.583744 25.5428 0.625263L21.4943 0.650061C21.4287 0.629454 21.335 0.631375 21.213 0.656347C21.0912 0.68132 21.0302 0.693851 21.0302 0.693851L20.9597 0.725066L20.9038 0.762569C20.8569 0.787367 20.8054 0.830982 20.7491 0.893327C20.6931 0.955453 20.6463 1.02836 20.6089 1.11144C20.1681 2.11695 19.667 3.05181 19.1045 3.91599C18.7577 4.43129 18.4393 4.87788 18.1484 5.256C17.858 5.634 17.6143 5.9125 17.4176 6.09102C17.2207 6.26971 17.0429 6.41287 16.8833 6.52101C16.7239 6.6292 16.6022 6.67491 16.518 6.65819C16.4335 6.64147 16.354 6.62488 16.2787 6.60829C16.1476 6.53345 16.0422 6.43169 15.9626 6.30289C15.8828 6.1741 15.829 6.012 15.8009 5.81671C15.7729 5.62129 15.7564 5.45321 15.7517 5.31189C15.7473 5.17074 15.7493 4.97109 15.7588 4.7135C15.7685 4.45578 15.7729 4.28141 15.7729 4.18999C15.7729 3.87416 15.7799 3.5314 15.7938 3.16161C15.808 2.79182 15.8195 2.49883 15.8291 2.28298C15.8386 2.06691 15.843 1.83832 15.843 1.59732C15.843 1.35633 15.8265 1.16733 15.7938 1.03015C15.7615 0.893152 15.7119 0.760168 15.6466 0.631244C15.5808 0.502451 15.4846 0.402822 15.3584 0.332095C15.2319 0.261455 15.0746 0.205397 14.8875 0.163747C14.3907 0.0640744 13.7582 0.0101561 12.9895 0.00177359C11.2464 -0.0148167 10.1264 0.0849868 9.6297 0.301053C9.4329 0.392344 9.25481 0.517076 9.09557 0.674859C8.92683 0.857745 8.9033 0.957549 9.02511 0.973964C9.58751 1.04866 9.98565 1.22736 10.22 1.50987L10.3044 1.65958C10.3701 1.76759 10.4357 1.95882 10.5013 2.23299C10.5668 2.50717 10.6091 2.81046 10.6278 3.14271C10.6745 3.74943 10.6745 4.26879 10.6278 4.70084C10.5808 5.13306 10.5365 5.46954 10.4942 5.71053C10.4519 5.95153 10.3887 6.14681 10.3044 6.29635C10.22 6.44592 10.1638 6.53734 10.1356 6.57052C10.1075 6.6037 10.0841 6.62461 10.0655 6.63282C9.94365 6.67421 9.81696 6.6953 9.68584 6.6953C9.55452 6.6953 9.39528 6.63706 9.20788 6.52066C9.02053 6.40427 8.82609 6.24439 8.62456 6.04077C8.42303 5.8371 8.19575 5.55249 7.94262 5.18689C7.68968 4.82129 7.42724 4.38921 7.15545 3.89062L6.93058 3.52904C6.79001 3.29643 6.59798 2.95773 6.3543 2.51324C6.11047 2.06857 5.89496 1.63845 5.70761 1.22295C5.63272 1.04845 5.52021 0.915593 5.37028 0.824172L5.29992 0.786669C5.25314 0.753488 5.17806 0.718255 5.07505 0.680709C4.9719 0.643206 4.86426 0.616312 4.7517 0.599766L0.899872 0.624564C0.506264 0.624564 0.239198 0.70363 0.0985743 0.861543L0.0422954 0.936243C0.0141805 0.977849 -1.10527e-09 1.0443 -1.20207e-09 1.13576C-1.29883e-09 1.22718 0.0281148 1.33939 0.0843938 1.47224C0.646691 2.64404 1.25818 3.77414 1.91885 4.86273C2.57952 5.95131 3.15364 6.82819 3.64085 7.49259C4.12816 8.15747 4.62487 8.78498 5.13098 9.3748C5.6371 9.96485 5.97212 10.343 6.13603 10.5091C6.30014 10.6755 6.42904 10.8 6.52274 10.883L6.87425 11.1821C7.09917 11.3816 7.42946 11.6205 7.86526 11.8988C8.30117 12.1773 8.78375 12.4515 9.31325 12.7218C9.84286 12.9917 10.459 13.2119 11.1619 13.3822C11.8648 13.5527 12.5489 13.6211 13.2144 13.5881L14.831 13.5881C15.1589 13.563 15.4073 13.4716 15.5762 13.3138L15.6321 13.2513C15.6697 13.2017 15.7049 13.1246 15.7374 13.021C15.7703 12.9171 15.7867 12.8027 15.7867 12.6782C15.7771 12.3209 15.8077 11.999 15.8778 11.7123C15.9479 11.4257 16.0278 11.2096 16.1171 11.0641C16.2064 10.9187 16.3071 10.7961 16.4192 10.6966C16.5316 10.5969 16.6116 10.5366 16.6586 10.5158C16.7053 10.4949 16.7426 10.4807 16.7707 10.4722C16.9956 10.4057 17.2603 10.4701 17.5652 10.6655C17.8698 10.8608 18.1555 11.1019 18.4228 11.3885C18.6899 11.6754 19.0109 11.9972 19.3857 12.3544C19.7607 12.7118 20.0886 12.9775 20.3697 13.1522L20.6507 13.3018C20.8384 13.4016 21.0821 13.493 21.3821 13.5761C21.6815 13.6592 21.9438 13.6799 22.1691 13.6384L25.7677 13.5886C26.1237 13.5886 26.4006 13.5364 26.5971 13.4327C26.7939 13.3288 26.9109 13.2144 26.9486 13.0899C26.9862 12.9653 26.9882 12.824 26.9557 12.6659C26.9224 12.5083 26.8896 12.398 26.8569 12.3357Z" fill="#4B506B"/>
</svg>
