<svg width="27" height="27" viewBox="0 0 27 27" fill="none" xmlns="http://www.w3.org/2000/svg">
<g clip-path="url(#clip0)">
<path d="M14.3438 0.84375C7.84688 0.84375 2.53125 6.15938 2.53125 12.6562C2.53125 15.525 3.62813 18.225 5.31563 20.25L3.375 26.1562L9.53438 23.4562C10.9688 24.1312 12.6562 24.4687 14.3437 24.4687C20.8406 24.4687 26.1562 19.1531 26.1562 12.6562C26.1562 6.15938 20.8406 0.84375 14.3438 0.84375Z" stroke="#4B506B" stroke-width="2" stroke-miterlimit="10" stroke-linecap="round" stroke-linejoin="round"/>
<path d="M20.8406 16.9594C21.0938 16.2 21.0937 15.6094 21.0094 15.4406C20.925 15.2719 20.7563 15.2719 20.4188 15.1031C20.0813 14.9344 18.5625 14.175 18.3094 14.0906C18.0563 14.0063 17.7187 14.0063 17.55 14.3438C17.2125 14.7656 16.9594 15.1875 16.7062 15.4406C16.5375 15.6094 16.2 15.6938 15.9469 15.525C15.6094 15.3563 14.5969 15.0188 13.4156 14.0063C12.4875 13.1625 11.8969 12.15 11.6438 11.8125C11.475 11.475 11.6437 11.3063 11.8125 11.1375C11.9813 10.9688 12.15 10.8 12.3188 10.6313C12.4875 10.4625 12.5719 10.3781 12.6562 10.125C12.7406 9.95625 12.6562 9.70313 12.5719 9.53438C12.4875 9.36563 11.8969 7.84688 11.6438 7.25625C11.475 6.75 11.3063 6.75 10.9688 6.75C10.8844 6.75 10.7156 6.75 10.6313 6.75C10.2094 6.75 9.7875 6.83438 9.53438 7.17188C9.19688 7.50938 8.4375 8.26875 8.4375 9.7875C8.4375 11.3063 9.53437 12.825 9.70312 12.9938C9.87188 13.1625 11.8969 16.3688 15.0187 17.7188C17.4656 18.7313 18.225 18.6469 18.7313 18.5625C19.575 18.3094 20.5875 17.7188 20.8406 16.9594Z" stroke="#4B506B" stroke-width="2"/>
</g>
<defs>
<clipPath id="clip0">
<rect width="27" height="27" fill="white"/>
</clipPath>
</defs>
</svg>
